<?xml version="1.0" encoding="UTF-8" ?>
<svg version="1.1" width="256" height="256" xmlns="http://www.w3.org/2000/svg" shape-rendering="crispEdges">
<rect x="112" y="28" width="4" height="4" fill="#8C8A7D" />
<rect x="108" y="32" width="4" height="4" fill="#8C8A7D" />
<rect x="112" y="32" width="4" height="4" fill="#AFBA9B" />
<rect x="116" y="32" width="4" height="4" fill="#8C8A7D" />
<rect x="132" y="32" width="4" height="4" fill="#8C8A7D" />
<rect x="104" y="36" width="4" height="4" fill="#8C8A7D" />
<rect x="108" y="36" width="4" height="4" fill="#AFBA9B" />
<rect x="112" y="36" width="4" height="4" fill="#8C8A7D" />
<rect x="116" y="36" width="4" height="4" fill="#8E977D" />
<rect x="120" y="36" width="4" height="4" fill="#8C8A7D" />
<rect x="128" y="36" width="4" height="4" fill="#8C8A7D" />
<rect x="132" y="36" width="4" height="4" fill="#AFBA9B" />
<rect x="136" y="36" width="4" height="4" fill="#8C8A7D" />
<rect x="144" y="36" width="4" height="4" fill="#8C8A7D" />
<rect x="100" y="40" width="4" height="12" fill="#8C8A7D" />
<rect x="104" y="40" width="4" height="12" fill="#AFBA9B" />
<rect x="108" y="40" width="4" height="12" fill="#8C8A7D" />
<rect x="116" y="40" width="4" height="4" fill="#8C8A7D" />
<rect x="124" y="40" width="4" height="8" fill="#8C8A7D" />
<rect x="128" y="40" width="4" height="8" fill="#AFBA9B" />
<rect x="132" y="40" width="4" height="8" fill="#8C8A7D" />
<rect x="140" y="40" width="4" height="4" fill="#8C8A7D" />
<rect x="144" y="40" width="4" height="4" fill="#AFBA9B" />
<rect x="148" y="40" width="4" height="4" fill="#8C8A7D" />
<rect x="136" y="44" width="4" height="4" fill="#8C8A7D" />
<rect x="140" y="44" width="4" height="4" fill="#AFBA9B" />
<rect x="144" y="44" width="4" height="8" fill="#8C8A7D" />
<rect x="148" y="44" width="4" height="8" fill="#AFBA9B" />
<rect x="152" y="44" width="4" height="8" fill="#8C8A7D" />
<rect x="120" y="48" width="4" height="4" fill="#8C8A7D" />
<rect x="124" y="48" width="4" height="4" fill="#AFBA9B" />
<rect x="128" y="48" width="4" height="4" fill="#8C8A7D" />
<rect x="140" y="48" width="4" height="4" fill="#8C8A7D" />
<rect x="104" y="52" width="4" height="8" fill="#8C8A7D" />
<rect x="108" y="52" width="4" height="8" fill="#AFBA9B" />
<rect x="112" y="52" width="8" height="8" fill="#8C8A7D" />
<rect x="120" y="52" width="4" height="8" fill="#AFBA9B" />
<rect x="124" y="52" width="4" height="8" fill="#8C8A7D" />
<rect x="148" y="52" width="4" height="12" fill="#8C8A7D" />
<rect x="152" y="52" width="4" height="12" fill="#AFBA9B" />
<rect x="156" y="52" width="4" height="12" fill="#8C8A7D" />
<rect x="108" y="60" width="4" height="16" fill="#8C8A7D" />
<rect x="112" y="60" width="4" height="16" fill="#AFBA9B" />
<rect x="116" y="60" width="8" height="8" fill="#8C8A7D" />
<rect x="124" y="60" width="4" height="8" fill="#AFBA9B" />
<rect x="128" y="60" width="4" height="8" fill="#8C8A7D" />
<rect x="144" y="64" width="4" height="12" fill="#8C8A7D" />
<rect x="148" y="64" width="4" height="12" fill="#AFBA9B" />
<rect x="152" y="64" width="4" height="12" fill="#8C8A7D" />
<rect x="116" y="68" width="4" height="8" fill="#8C8A7D" />
<rect x="124" y="68" width="4" height="12" fill="#8C8A7D" />
<rect x="128" y="68" width="4" height="12" fill="#AFBA9B" />
<rect x="132" y="68" width="4" height="12" fill="#8C8A7D" />
<rect x="104" y="76" width="4" height="8" fill="#8C8A7D" />
<rect x="108" y="76" width="4" height="8" fill="#AFBA9B" />
<rect x="112" y="76" width="4" height="8" fill="#8C8A7D" />
<rect x="140" y="76" width="4" height="16" fill="#8C8A7D" />
<rect x="144" y="76" width="4" height="16" fill="#AFBA9B" />
<rect x="148" y="76" width="4" height="16" fill="#8C8A7D" />
<rect x="128" y="80" width="4" height="4" fill="#8C8A7D" />
<rect x="132" y="80" width="4" height="4" fill="#AFBA9B" />
<rect x="136" y="80" width="4" height="4" fill="#8C8A7D" />
<rect x="100" y="84" width="4" height="20" fill="#8C8A7D" />
<rect x="104" y="84" width="4" height="16" fill="#AFBA9B" />
<rect x="108" y="84" width="4" height="16" fill="#8C8A7D" />
<rect x="124" y="84" width="4" height="4" fill="#8C8A7D" />
<rect x="128" y="84" width="4" height="4" fill="#AFBA9B" />
<rect x="132" y="84" width="4" height="4" fill="#8C8A7D" />
<rect x="120" y="88" width="4" height="4" fill="#8C8A7D" />
<rect x="124" y="88" width="4" height="4" fill="#AFBA9B" />
<rect x="128" y="88" width="4" height="4" fill="#8C8A7D" />
<rect x="116" y="92" width="4" height="8" fill="#8C8A7D" />
<rect x="120" y="92" width="4" height="12" fill="#AFBA9B" />
<rect x="124" y="92" width="4" height="8" fill="#8C8A7D" />
<rect x="136" y="92" width="4" height="4" fill="#8C8A7D" />
<rect x="140" y="92" width="4" height="4" fill="#AFBA9B" />
<rect x="144" y="92" width="4" height="8" fill="#8C8A7D" />
<rect x="112" y="96" width="4" height="4" fill="#8C8A7D" />
<rect x="128" y="96" width="8" height="4" fill="#8C8A7D" />
<rect x="136" y="96" width="4" height="4" fill="#AFBA9B" />
<rect x="140" y="96" width="4" height="4" fill="#8C8A7D" />
<rect x="148" y="96" width="8" height="4" fill="#8C8A7D" />
<rect x="84" y="100" width="16" height="4" fill="#8C8A7D" />
<rect x="104" y="100" width="4" height="8" fill="#ECE7D1" />
<rect x="108" y="100" width="4" height="8" fill="#AFBA9B" />
<rect x="112" y="100" width="8" height="8" fill="#FFFFFF" />
<rect x="124" y="100" width="4" height="4" fill="#FFFFFF" />
<rect x="128" y="100" width="8" height="4" fill="#AFBA9B" />
<rect x="136" y="100" width="20" height="8" fill="#ECE7D1" />
<rect x="156" y="100" width="12" height="4" fill="#8C8A7D" />
<rect x="80" y="104" width="8" height="4" fill="#8C8A7D" />
<rect x="88" y="104" width="16" height="8" fill="#ECE7D1" />
<rect x="120" y="104" width="4" height="4" fill="#FFFFFF" />
<rect x="124" y="104" width="8" height="12" fill="#AFBA9B" />
<rect x="132" y="104" width="4" height="4" fill="#ECE7D1" />
<rect x="156" y="104" width="12" height="8" fill="#ECE7D1" />
<rect x="168" y="104" width="4" height="4" fill="#8C8A7D" />
<rect x="76" y="108" width="8" height="4" fill="#8C8A7D" />
<rect x="84" y="108" width="4" height="12" fill="#ECE7D1" />
<rect x="104" y="108" width="8" height="4" fill="#D9D4C1" />
<rect x="112" y="108" width="4" height="8" fill="#AFBA9B" />
<rect x="116" y="108" width="8" height="4" fill="#8A6F30" />
<rect x="132" y="108" width="4" height="8" fill="#AFBA9B" />
<rect x="136" y="108" width="8" height="4" fill="#8A6F30" />
<rect x="144" y="108" width="8" height="4" fill="#D9D4C1" />
<rect x="152" y="108" width="4" height="4" fill="#ECE7D1" />
<rect x="168" y="108" width="4" height="12" fill="#ECE7D1" />
<rect x="172" y="108" width="4" height="4" fill="#8C8A7D" />
<rect x="72" y="112" width="8" height="4" fill="#8C8A7D" />
<rect x="80" y="112" width="4" height="4" fill="#ECE7D1" />
<rect x="88" y="112" width="8" height="12" fill="#ECE7D1" />
<rect x="96" y="112" width="4" height="4" fill="#D9D4C1" />
<rect x="100" y="112" width="12" height="4" fill="#8A6F30" />
<rect x="116" y="112" width="8" height="4" fill="#AFBA9B" />
<rect x="136" y="112" width="8" height="4" fill="#AFBA9B" />
<rect x="144" y="112" width="12" height="4" fill="#8A6F30" />
<rect x="156" y="112" width="4" height="4" fill="#D9D4C1" />
<rect x="160" y="112" width="8" height="12" fill="#ECE7D1" />
<rect x="172" y="112" width="4" height="4" fill="#ECE7D1" />
<rect x="176" y="112" width="8" height="4" fill="#8C8A7D" />
<rect x="72" y="116" width="4" height="24" fill="#8C8A7D" />
<rect x="76" y="116" width="8" height="4" fill="#D9D4C1" />
<rect x="96" y="116" width="8" height="8" fill="#ECE7D1" />
<rect x="104" y="116" width="48" height="4" fill="#8A6F30" />
<rect x="152" y="116" width="8" height="8" fill="#ECE7D1" />
<rect x="172" y="116" width="4" height="4" fill="#D9D4C1" />
<rect x="176" y="116" width="8" height="8" fill="#ECE7D1" />
<rect x="184" y="116" width="8" height="4" fill="#8C8A7D" />
<rect x="76" y="120" width="4" height="20" fill="#D9D4C1" />
<rect x="80" y="120" width="4" height="4" fill="#ECE7D1" />
<rect x="84" y="120" width="4" height="4" fill="#D9D4C1" />
<rect x="104" y="120" width="48" height="8" fill="#ECE7D1" />
<rect x="168" y="120" width="4" height="4" fill="#D9D4C1" />
<rect x="172" y="120" width="4" height="40" fill="#ECE7D1" />
<rect x="184" y="120" width="8" height="4" fill="#D9D4C1" />
<rect x="192" y="120" width="4" height="4" fill="#8C8A7D" />
<rect x="80" y="124" width="4" height="4" fill="#D9D4C1" />
<rect x="84" y="124" width="4" height="4" fill="#ECE7D1" />
<rect x="88" y="124" width="16" height="4" fill="#D9D4C1" />
<rect x="152" y="124" width="16" height="4" fill="#D9D4C1" />
<rect x="168" y="124" width="4" height="40" fill="#ECE7D1" />
<rect x="176" y="124" width="4" height="16" fill="#ECE7D1" />
<rect x="180" y="124" width="8" height="4" fill="#D9D4C1" />
<rect x="188" y="124" width="8" height="8" fill="#ECE7D1" />
<rect x="196" y="124" width="4" height="4" fill="#8C8A7D" />
<rect x="80" y="128" width="4" height="4" fill="#ECE7D1" />
<rect x="84" y="128" width="4" height="4" fill="#D9D4C1" />
<rect x="88" y="128" width="4" height="4" fill="#ECE7D1" />
<rect x="92" y="128" width="4" height="4" fill="#D9D4C1" />
<rect x="96" y="128" width="4" height="52" fill="#ECE7D1" />
<rect x="100" y="128" width="52" height="4" fill="#D9D4C1" />
<rect x="152" y="128" width="16" height="48" fill="#ECE7D1" />
<rect x="180" y="128" width="8" height="4" fill="#8C8A7D" />
<rect x="196" y="128" width="4" height="36" fill="#ECE7D1" />
<rect x="200" y="128" width="4" height="4" fill="#8C8A7D" />
<rect x="80" y="132" width="4" height="4" fill="#D9D4C1" />
<rect x="84" y="132" width="4" height="4" fill="#ECE7D1" />
<rect x="88" y="132" width="4" height="4" fill="#D9D4C1" />
<rect x="92" y="132" width="4" height="36" fill="#ECE7D1" />
<rect x="100" y="132" width="52" height="52" fill="#ECE7D1" />
<rect x="180" y="132" width="4" height="8" fill="#8C8A7D" />
<rect x="188" y="132" width="4" height="4" fill="#8C8A7D" />
<rect x="192" y="132" width="4" height="4" fill="#ECE7D1" />
<rect x="200" y="132" width="4" height="20" fill="#ECE7D1" />
<rect x="204" y="132" width="4" height="20" fill="#8C8A7D" />
<rect x="80" y="136" width="4" height="4" fill="#D6D2BF" />
<rect x="84" y="136" width="4" height="4" fill="#D9D4C1" />
<rect x="88" y="136" width="4" height="20" fill="#ECE7D1" />
<rect x="192" y="136" width="4" height="16" fill="#8C8A7D" />
<rect x="76" y="140" width="4" height="28" fill="#8C8A7D" />
<rect x="80" y="140" width="4" height="28" fill="#D9D4C1" />
<rect x="84" y="140" width="4" height="4" fill="#ECE7D1" />
<rect x="176" y="140" width="4" height="28" fill="#8C8A7D" />
<rect x="84" y="144" width="4" height="4" fill="#D9D4C1" />
<rect x="84" y="148" width="4" height="4" fill="#ECE7D1" />
<rect x="84" y="152" width="4" height="4" fill="#D9D4C1" />
<rect x="188" y="152" width="4" height="12" fill="#8C8A7D" />
<rect x="192" y="152" width="4" height="20" fill="#ECE7D1" />
<rect x="200" y="152" width="4" height="12" fill="#8C8A7D" />
<rect x="84" y="156" width="4" height="4" fill="#ECE7D1" />
<rect x="88" y="156" width="4" height="4" fill="#D9D4C1" />
<rect x="84" y="160" width="4" height="4" fill="#D9D4C1" />
<rect x="88" y="160" width="4" height="4" fill="#ECE7D1" />
<rect x="172" y="160" width="4" height="4" fill="#D9D4C1" />
<rect x="84" y="164" width="4" height="4" fill="#ECE7D1" />
<rect x="88" y="164" width="4" height="4" fill="#D9D4C1" />
<rect x="168" y="164" width="4" height="4" fill="#D9D4C1" />
<rect x="172" y="164" width="4" height="4" fill="#ECE7D1" />
<rect x="184" y="164" width="4" height="8" fill="#8C8A7D" />
<rect x="188" y="164" width="4" height="16" fill="#ECE7D1" />
<rect x="196" y="164" width="4" height="8" fill="#8C8A7D" />
<rect x="80" y="168" width="4" height="12" fill="#8C8A7D" />
<rect x="84" y="168" width="4" height="12" fill="#D9D4C1" />
<rect x="88" y="168" width="4" height="4" fill="#ECE7D1" />
<rect x="92" y="168" width="4" height="4" fill="#D9D4C1" />
<rect x="168" y="168" width="4" height="4" fill="#ECE7D1" />
<rect x="172" y="168" width="4" height="16" fill="#8C8A7D" />
<rect x="88" y="172" width="4" height="4" fill="#D9D4C1" />
<rect x="92" y="172" width="4" height="4" fill="#ECE7D1" />
<rect x="168" y="172" width="4" height="4" fill="#D9D4C1" />
<rect x="180" y="172" width="4" height="8" fill="#8C8A7D" />
<rect x="184" y="172" width="4" height="12" fill="#ECE7D1" />
<rect x="192" y="172" width="4" height="8" fill="#8C8A7D" />
<rect x="88" y="176" width="4" height="4" fill="#ECE7D1" />
<rect x="92" y="176" width="4" height="4" fill="#D9D4C1" />
<rect x="152" y="176" width="12" height="4" fill="#ECE7D1" />
<rect x="164" y="176" width="4" height="4" fill="#D9D4C1" />
<rect x="168" y="176" width="4" height="4" fill="#ECE7D1" />
<rect x="176" y="176" width="4" height="4" fill="#8C8A7D" />
<rect x="84" y="180" width="4" height="8" fill="#8C8A7D" />
<rect x="88" y="180" width="4" height="8" fill="#D9D4C1" />
<rect x="92" y="180" width="4" height="4" fill="#ECE7D1" />
<rect x="96" y="180" width="4" height="4" fill="#D9D4C1" />
<rect x="152" y="180" width="8" height="4" fill="#ECE7D1" />
<rect x="160" y="180" width="4" height="4" fill="#D9D4C1" />
<rect x="164" y="180" width="4" height="4" fill="#ECE7D1" />
<rect x="168" y="180" width="4" height="4" fill="#8C8A7D" />
<rect x="176" y="180" width="8" height="8" fill="#ECE7D1" />
<rect x="188" y="180" width="4" height="4" fill="#8C8A7D" />
<rect x="92" y="184" width="4" height="8" fill="#D9D4C1" />
<rect x="96" y="184" width="4" height="4" fill="#ECE7D1" />
<rect x="100" y="184" width="4" height="4" fill="#D9D4C1" />
<rect x="104" y="184" width="52" height="4" fill="#ECE7D1" />
<rect x="156" y="184" width="4" height="4" fill="#D9D4C1" />
<rect x="160" y="184" width="4" height="4" fill="#ECE7D1" />
<rect x="164" y="184" width="8" height="4" fill="#D9D4C1" />
<rect x="172" y="184" width="4" height="4" fill="#ECE7D1" />
<rect x="184" y="184" width="4" height="4" fill="#8C8A7D" />
<rect x="88" y="188" width="4" height="4" fill="#8C8A7D" />
<rect x="96" y="188" width="4" height="8" fill="#D9D4C1" />
<rect x="100" y="188" width="4" height="4" fill="#ECE7D1" />
<rect x="104" y="188" width="4" height="4" fill="#D9D4C1" />
<rect x="108" y="188" width="4" height="4" fill="#ECE7D1" />
<rect x="112" y="188" width="4" height="4" fill="#D9D4C1" />
<rect x="116" y="188" width="4" height="4" fill="#ECE7D1" />
<rect x="120" y="188" width="4" height="4" fill="#D9D4C1" />
<rect x="124" y="188" width="20" height="4" fill="#ECE7D1" />
<rect x="144" y="188" width="4" height="4" fill="#D9D4C1" />
<rect x="148" y="188" width="4" height="4" fill="#ECE7D1" />
<rect x="152" y="188" width="4" height="4" fill="#D9D4C1" />
<rect x="156" y="188" width="4" height="4" fill="#ECE7D1" />
<rect x="160" y="188" width="4" height="4" fill="#D9D4C1" />
<rect x="164" y="188" width="4" height="4" fill="#ECE7D1" />
<rect x="168" y="188" width="8" height="4" fill="#D9D4C1" />
<rect x="176" y="188" width="8" height="4" fill="#8C8A7D" />
<rect x="92" y="192" width="4" height="4" fill="#8C8A7D" />
<rect x="100" y="192" width="4" height="8" fill="#D9D4C1" />
<rect x="104" y="192" width="4" height="4" fill="#ECE7D1" />
<rect x="108" y="192" width="4" height="4" fill="#D9D4C1" />
<rect x="112" y="192" width="4" height="4" fill="#ECE7D1" />
<rect x="116" y="192" width="4" height="4" fill="#D9D4C1" />
<rect x="120" y="192" width="4" height="4" fill="#ECE7D1" />
<rect x="124" y="192" width="4" height="4" fill="#D9D4C1" />
<rect x="128" y="192" width="4" height="4" fill="#ECE7D1" />
<rect x="132" y="192" width="4" height="4" fill="#D9D4C1" />
<rect x="136" y="192" width="4" height="4" fill="#ECE7D1" />
<rect x="140" y="192" width="4" height="4" fill="#D9D4C1" />
<rect x="144" y="192" width="4" height="4" fill="#ECE7D1" />
<rect x="148" y="192" width="4" height="4" fill="#D9D4C1" />
<rect x="152" y="192" width="4" height="4" fill="#ECE7D1" />
<rect x="156" y="192" width="4" height="4" fill="#D9D4C1" />
<rect x="160" y="192" width="4" height="4" fill="#ECE7D1" />
<rect x="164" y="192" width="4" height="4" fill="#D9D4C1" />
<rect x="168" y="192" width="8" height="4" fill="#8C8A7D" />
<rect x="96" y="196" width="4" height="4" fill="#8C8A7D" />
<rect x="104" y="196" width="4" height="4" fill="#D9D4C1" />
<rect x="108" y="196" width="4" height="4" fill="#ECE7D1" />
<rect x="112" y="196" width="4" height="8" fill="#D9D4C1" />
<rect x="116" y="196" width="4" height="4" fill="#ECE7D1" />
<rect x="120" y="196" width="4" height="4" fill="#D9D4C1" />
<rect x="124" y="196" width="4" height="4" fill="#ECE7D1" />
<rect x="128" y="196" width="4" height="4" fill="#D9D4C1" />
<rect x="132" y="196" width="4" height="4" fill="#ECE7D1" />
<rect x="136" y="196" width="4" height="4" fill="#D9D4C1" />
<rect x="140" y="196" width="4" height="4" fill="#ECE7D1" />
<rect x="144" y="196" width="4" height="8" fill="#D9D4C1" />
<rect x="148" y="196" width="4" height="4" fill="#ECE7D1" />
<rect x="152" y="196" width="4" height="4" fill="#D9D4C1" />
<rect x="156" y="196" width="12" height="4" fill="#8C8A7D" />
<rect x="100" y="200" width="8" height="4" fill="#8C8A7D" />
<rect x="108" y="200" width="4" height="4" fill="#D9D4C1" />
<rect x="116" y="200" width="4" height="8" fill="#D9D4C1" />
<rect x="120" y="200" width="4" height="4" fill="#ECE7D1" />
<rect x="124" y="200" width="4" height="8" fill="#D9D4C1" />
<rect x="128" y="200" width="4" height="4" fill="#ECE7D1" />
<rect x="132" y="200" width="4" height="8" fill="#D9D4C1" />
<rect x="136" y="200" width="4" height="4" fill="#ECE7D1" />
<rect x="140" y="200" width="4" height="4" fill="#D9D4C1" />
<rect x="148" y="200" width="8" height="4" fill="#8C8A7D" />
<rect x="108" y="204" width="8" height="4" fill="#8C8A7D" />
<rect x="120" y="204" width="4" height="4" fill="#D9D4C1" />
<rect x="128" y="204" width="4" height="4" fill="#D9D4C1" />
<rect x="136" y="204" width="4" height="4" fill="#D9D4C1" />
<rect x="140" y="204" width="8" height="4" fill="#8C8A7D" />
<rect x="116" y="208" width="24" height="4" fill="#8C8A7D" />
</svg>