<svg xmlns="http://www.w3.org/2000/svg" xmlns:xlink="http://www.w3.org/1999/xlink" width="189" zoomAndPan="magnify" viewBox="0 0 141.12 240.749995" height="321" preserveAspectRatio="xMidYMid meet" version="1.0"><defs><g/><clipPath id="4af5358f67"><path d="M 0 0.621094 L 140.125 0.621094 L 140.125 238.652344 L 0 238.652344 Z M 0 0.621094 " clip-rule="nonzero"/></clipPath><clipPath id="7777115030"><path d="M 119 122 L 140.125 122 L 140.125 137 L 119 137 Z M 119 122 " clip-rule="nonzero"/></clipPath><clipPath id="817a1a4e0d"><path d="M 119 137 L 140.125 137 L 140.125 156 L 119 156 Z M 119 137 " clip-rule="nonzero"/></clipPath><clipPath id="4518134757"><path d="M 119 154 L 140.125 154 L 140.125 167 L 119 167 Z M 119 154 " clip-rule="nonzero"/></clipPath><clipPath id="8d8812e8c6"><path d="M 119 167 L 140.125 167 L 140.125 191 L 119 191 Z M 119 167 " clip-rule="nonzero"/></clipPath><clipPath id="a6a97f9754"><path d="M 119 191 L 140.125 191 L 140.125 197 L 119 197 Z M 119 191 " clip-rule="nonzero"/></clipPath><clipPath id="62b61a6917"><path d="M 119 198 L 140.125 198 L 140.125 215 L 119 215 Z M 119 198 " clip-rule="nonzero"/></clipPath><clipPath id="88673cbc0c"><path d="M 119 214 L 140.125 214 L 140.125 238 L 119 238 Z M 119 214 " clip-rule="nonzero"/></clipPath><clipPath id="73a9c41ff9"><path d="M 2 206 L 6 206 L 6 238.652344 L 2 238.652344 Z M 2 206 " clip-rule="nonzero"/></clipPath><clipPath id="0bdce3b8ee"><path d="M 42 206 L 54 206 L 54 238.652344 L 42 238.652344 Z M 42 206 " clip-rule="nonzero"/></clipPath><clipPath id="4f2ddcd235"><path d="M 5 209 L 43 209 L 43 238.652344 L 5 238.652344 Z M 5 209 " clip-rule="nonzero"/></clipPath><clipPath id="217f41d929"><path d="M 67 231 L 71 231 L 71 238.652344 L 67 238.652344 Z M 67 231 " clip-rule="nonzero"/></clipPath><clipPath id="48977db577"><path d="M 56 234 L 60 234 L 60 238.652344 L 56 238.652344 Z M 56 234 " clip-rule="nonzero"/></clipPath><clipPath id="0d302f2346"><path d="M 0 237 L 3 237 L 3 238.652344 L 0 238.652344 Z M 0 237 " clip-rule="nonzero"/></clipPath><clipPath id="48971e8ef7"><path d="M 53 237 L 57 237 L 57 238.652344 L 53 238.652344 Z M 53 237 " clip-rule="nonzero"/></clipPath><clipPath id="2389095240"><path d="M 61 237 L 65 237 L 65 238.652344 L 61 238.652344 Z M 61 237 " clip-rule="nonzero"/></clipPath><clipPath id="529ef24f50"><path d="M 64 237 L 68 237 L 68 238.652344 L 64 238.652344 Z M 64 237 " clip-rule="nonzero"/></clipPath><clipPath id="b008d65254"><path d="M 70 237 L 74 237 L 74 238.652344 L 70 238.652344 Z M 70 237 " clip-rule="nonzero"/></clipPath></defs><g clip-path="url(#4af5358f67)"><path fill="#ffffff" d="M 0 0.621094 L 140.148438 0.621094 L 140.148438 238.652344 L 0 238.652344 Z M 0 0.621094 " fill-opacity="1" fill-rule="nonzero"/><path fill="#362402" d="M 0 0.621094 L 140.148438 0.621094 L 140.148438 238.652344 L 0 238.652344 Z M 0 0.621094 " fill-opacity="1" fill-rule="nonzero"/></g><g fill="#8e977d" fill-opacity="1"><g transform="translate(120.25466, 1.965259)"><g><path d="M 19.578125 1.421875 L 19.578125 8.5625 C 19.578125 10.5625 19.0625 12.175781 18.03125 13.40625 C 17.007812 14.644531 15.515625 15.265625 13.546875 15.265625 C 11.585938 15.265625 10.050781 14.640625 8.9375 13.390625 C 7.820312 12.140625 7.265625 10.53125 7.265625 8.5625 L 7.265625 5.890625 L 0 5.890625 L 0 1.421875 Z M 10.828125 5.890625 L 10.828125 7.140625 C 10.828125 8.140625 11.023438 8.957031 11.421875 9.59375 C 11.828125 10.238281 12.488281 10.5625 13.40625 10.5625 C 14.34375 10.5625 15.007812 10.238281 15.40625 9.59375 C 15.8125 8.957031 16.015625 8.140625 16.015625 7.140625 L 16.015625 5.890625 Z M 10.828125 5.890625 "/></g></g></g><g fill="#8e977d" fill-opacity="1"><g transform="translate(120.25466, 17.768798)"><g><path d="M 19.578125 1.421875 L 19.578125 8.421875 C 19.578125 10.304688 19.070312 11.84375 18.0625 13.03125 C 17.0625 14.21875 15.628906 14.8125 13.765625 14.8125 C 12.328125 14.8125 11.117188 14.453125 10.140625 13.734375 C 9.171875 13.015625 8.488281 12.035156 8.09375 10.796875 L 0 17.546875 L 0 11.859375 L 7.734375 5.890625 L 0 5.890625 L 0 1.421875 Z M 10.890625 5.890625 L 10.890625 6.40625 C 10.890625 6.820312 10.894531 7.171875 10.90625 7.453125 C 10.925781 7.734375 10.984375 8.054688 11.078125 8.421875 C 11.171875 8.785156 11.304688 9.078125 11.484375 9.296875 C 11.660156 9.523438 11.914062 9.71875 12.25 9.875 C 12.582031 10.03125 12.984375 10.109375 13.453125 10.109375 C 13.929688 10.109375 14.335938 10.03125 14.671875 9.875 C 15.003906 9.71875 15.253906 9.523438 15.421875 9.296875 C 15.597656 9.078125 15.734375 8.785156 15.828125 8.421875 C 15.921875 8.054688 15.972656 7.734375 15.984375 7.453125 C 16.003906 7.171875 16.015625 6.820312 16.015625 6.40625 L 16.015625 5.890625 Z M 10.890625 5.890625 "/></g></g></g><g fill="#8e977d" fill-opacity="1"><g transform="translate(120.25466, 34.758792)"><g><path d="M 19.578125 12.625 L 15.671875 12.625 L 15.671875 5.890625 L 11.765625 5.890625 L 11.765625 12.34375 L 7.859375 12.34375 L 7.859375 5.890625 L 3.921875 5.890625 L 3.921875 12.625 L 0 12.625 L 0 1.421875 L 19.578125 1.421875 Z M 19.578125 12.625 "/></g></g></g><g fill="#8e977d" fill-opacity="1"><g transform="translate(120.25466, 48.521639)"><g><path d="M 0 17.609375 L 11.609375 16.6875 L 11.609375 16.5625 L 0.125 12.5625 L 0.125 9.890625 L 11.609375 5.890625 L 11.609375 5.765625 L 0 4.84375 L 0 0.375 L 19.578125 2.140625 L 19.578125 6.890625 L 8.28125 11.21875 L 19.578125 15.5625 L 19.578125 20.3125 L 0 22.078125 Z M 0 17.609375 "/></g></g></g><g fill="#8e977d" fill-opacity="1"><g transform="translate(120.25466, 70.969313)"><g><path d="M 19.578125 5.890625 L 0 5.890625 L 0 1.421875 L 19.578125 1.421875 Z M 19.578125 5.890625 "/></g></g></g><g fill="#8e977d" fill-opacity="1"><g transform="translate(120.25466, 78.277855)"><g><path d="M 19.578125 16.46875 L 6.953125 16.46875 C 4.546875 16.46875 2.722656 15.816406 1.484375 14.515625 C 0.253906 13.222656 -0.359375 11.328125 -0.359375 8.828125 C -0.359375 6.328125 0.253906 4.425781 1.484375 3.125 C 2.722656 1.832031 4.546875 1.1875 6.953125 1.1875 L 19.578125 1.1875 L 19.578125 5.65625 L 8.265625 5.65625 C 6.679688 5.65625 5.578125 5.898438 4.953125 6.390625 C 4.335938 6.890625 4.03125 7.703125 4.03125 8.828125 C 4.03125 9.953125 4.335938 10.765625 4.953125 11.265625 C 5.578125 11.765625 6.679688 12.015625 8.265625 12.015625 L 19.578125 12.015625 Z M 19.578125 16.46875 "/></g></g></g><g fill="#8e977d" fill-opacity="1"><g transform="translate(120.25466, 95.932258)"><g><path d="M 0 17.609375 L 11.609375 16.6875 L 11.609375 16.5625 L 0.125 12.5625 L 0.125 9.890625 L 11.609375 5.890625 L 11.609375 5.765625 L 0 4.84375 L 0 0.375 L 19.578125 2.140625 L 19.578125 6.890625 L 8.28125 11.21875 L 19.578125 15.5625 L 19.578125 20.3125 L 0 22.078125 Z M 0 17.609375 "/></g></g></g><g clip-path="url(#7777115030)"><g fill="#ffffff" fill-opacity="1"><g transform="translate(120.182264, 121.077324)"><g><path d="M 20.019531 1.421875 L 20.019531 8.566406 C 20.019531 10.667969 19.472656 12.375 18.375 13.691406 C 17.257812 15.03125 15.648438 15.703125 13.550781 15.703125 C 11.453125 15.703125 9.804688 15.027344 8.601562 13.679688 C 7.410156 12.34375 6.816406 10.640625 6.816406 8.566406 L 6.816406 5.886719 L 7.261719 5.886719 L 7.261719 6.328125 L -0.445312 6.328125 L -0.445312 0.980469 L 20.019531 0.980469 Z M 19.132812 1.421875 L 19.578125 1.421875 L 19.578125 1.867188 L 0 1.867188 L 0 1.421875 L 0.445312 1.421875 L 0.445312 5.886719 L 0 5.886719 L 0 5.441406 L 7.707031 5.441406 L 7.707031 8.566406 C 7.707031 10.414062 8.226562 11.921875 9.265625 13.085938 C 10.292969 14.238281 11.71875 14.8125 13.550781 14.8125 C 15.371094 14.8125 16.753906 14.25 17.691406 13.121094 C 18.652344 11.96875 19.132812 10.453125 19.132812 8.566406 Z M 11.265625 5.886719 L 11.265625 7.140625 C 11.265625 8.054688 11.445312 8.792969 11.800781 9.359375 C 12.117188 9.863281 12.652344 10.113281 13.40625 10.113281 C 14.175781 10.113281 14.71875 9.863281 15.035156 9.359375 C 15.394531 8.792969 15.570312 8.054688 15.570312 7.140625 L 15.570312 5.886719 L 16.015625 5.886719 L 16.015625 6.328125 L 10.820312 6.328125 L 10.820312 5.886719 Z M 10.375 5.441406 L 16.460938 5.441406 L 16.460938 7.140625 C 16.460938 8.226562 16.238281 9.121094 15.789062 9.835938 C 15.296875 10.613281 14.503906 11.003906 13.40625 11.003906 C 12.324219 11.003906 11.539062 10.613281 11.050781 9.835938 C 10.601562 9.121094 10.375 8.226562 10.375 7.140625 Z M 10.375 5.441406 "/></g></g></g></g><g clip-path="url(#817a1a4e0d)"><g fill="#ffffff" fill-opacity="1"><g transform="translate(120.182264, 136.880864)"><g><path d="M 20.019531 1.421875 L 20.019531 8.421875 C 20.019531 10.414062 19.484375 12.046875 18.410156 13.316406 C 17.316406 14.605469 15.765625 15.25 13.761719 15.25 C 12.226562 15.25 10.929688 14.863281 9.878906 14.085938 C 8.828125 13.308594 8.09375 12.257812 7.667969 10.933594 L 8.089844 10.796875 L 8.375 11.136719 L -0.445312 18.484375 L -0.445312 11.644531 L 7.464844 5.53125 L 7.734375 5.886719 L 7.734375 6.328125 L -0.445312 6.328125 L -0.445312 0.980469 L 20.019531 0.980469 Z M 19.132812 1.421875 L 19.578125 1.421875 L 19.578125 1.867188 L 0 1.867188 L 0 1.421875 L 0.445312 1.421875 L 0.445312 5.886719 L 0 5.886719 L 0 5.441406 L 9.039062 5.441406 L 0.273438 12.214844 L 0 11.863281 L 0.445312 11.863281 L 0.445312 17.535156 L 0 17.535156 L -0.285156 17.195312 L 8.3125 10.03125 L 8.515625 10.660156 C 8.882812 11.804688 9.511719 12.707031 10.410156 13.371094 C 11.304688 14.03125 12.421875 14.363281 13.761719 14.363281 C 15.492188 14.363281 16.8125 13.820312 17.730469 12.738281 C 18.664062 11.636719 19.132812 10.199219 19.132812 8.421875 Z M 11.335938 5.886719 L 11.335938 6.40625 C 11.335938 6.808594 11.34375 7.148438 11.359375 7.425781 C 11.375 7.679688 11.425781 7.976562 11.511719 8.3125 C 11.589844 8.617188 11.699219 8.855469 11.835938 9.027344 C 11.964844 9.195312 12.164062 9.339844 12.433594 9.46875 C 12.707031 9.597656 13.046875 9.664062 13.453125 9.664062 C 13.863281 9.664062 14.203125 9.597656 14.472656 9.46875 C 14.742188 9.339844 14.941406 9.195312 15.074219 9.027344 C 15.210938 8.855469 15.316406 8.617188 15.398438 8.3125 C 15.484375 7.976562 15.535156 7.679688 15.550781 7.425781 C 15.566406 7.148438 15.570312 6.808594 15.570312 6.40625 L 15.570312 5.886719 L 16.015625 5.886719 L 16.015625 6.328125 L 10.890625 6.328125 L 10.890625 5.886719 Z M 10.445312 5.441406 L 16.460938 5.441406 L 16.460938 6.40625 C 16.460938 6.828125 16.453125 7.183594 16.4375 7.476562 C 16.421875 7.789062 16.359375 8.144531 16.257812 8.535156 C 16.148438 8.960938 15.984375 9.304688 15.773438 9.578125 C 15.558594 9.851562 15.25 10.085938 14.855469 10.273438 C 14.464844 10.460938 13.996094 10.554688 13.453125 10.554688 C 12.914062 10.554688 12.445312 10.460938 12.054688 10.273438 C 11.65625 10.085938 11.351562 9.851562 11.136719 9.578125 C 10.921875 9.304688 10.761719 8.960938 10.652344 8.535156 C 10.546875 8.144531 10.488281 7.789062 10.472656 7.476562 C 10.453125 7.183594 10.445312 6.828125 10.445312 6.40625 Z M 10.445312 5.441406 "/></g></g></g></g><g clip-path="url(#4518134757)"><g fill="#ffffff" fill-opacity="1"><g transform="translate(120.182264, 153.870858)"><g><path d="M 19.578125 13.070312 L 15.214844 13.070312 L 15.214844 5.886719 L 15.660156 5.886719 L 15.660156 6.328125 L 11.769531 6.328125 L 11.769531 5.886719 L 12.214844 5.886719 L 12.214844 12.785156 L 7.410156 12.785156 L 7.410156 5.886719 L 7.855469 5.886719 L 7.855469 6.328125 L 3.914062 6.328125 L 3.914062 5.886719 L 4.359375 5.886719 L 4.359375 13.070312 L -0.445312 13.070312 L -0.445312 0.980469 L 20.019531 0.980469 L 20.019531 13.070312 Z M 19.578125 12.179688 L 19.578125 12.625 L 19.132812 12.625 L 19.132812 1.421875 L 19.578125 1.421875 L 19.578125 1.867188 L 0 1.867188 L 0 1.421875 L 0.445312 1.421875 L 0.445312 12.625 L 0 12.625 L 0 12.179688 L 3.914062 12.179688 L 3.914062 12.625 L 3.46875 12.625 L 3.46875 5.441406 L 8.300781 5.441406 L 8.300781 12.339844 L 7.855469 12.339844 L 7.855469 11.894531 L 11.769531 11.894531 L 11.769531 12.339844 L 11.324219 12.339844 L 11.324219 5.441406 L 16.105469 5.441406 L 16.105469 12.625 L 15.660156 12.625 L 15.660156 12.179688 Z M 19.578125 12.179688 "/></g></g></g></g><g clip-path="url(#8d8812e8c6)"><g fill="#ffffff" fill-opacity="1"><g transform="translate(120.182264, 167.633705)"><g><path d="M -0.0351562 17.164062 L 11.566406 16.238281 L 11.601562 16.679688 L 11.160156 16.679688 L 11.160156 16.5625 L 11.601562 16.5625 L 11.457031 16.984375 L -0.328125 12.867188 L -0.328125 9.578125 L 11.457031 5.464844 L 11.601562 5.886719 L 11.160156 5.886719 L 11.160156 5.765625 L 11.601562 5.765625 L 11.566406 6.210938 L -0.445312 5.25 L -0.445312 -0.105469 L 20.019531 1.730469 L 20.019531 7.1875 L 8.441406 11.640625 L 8.28125 11.222656 L 8.441406 10.808594 L 20.019531 15.261719 L 20.019531 20.71875 L -0.445312 22.554688 L -0.445312 17.195312 Z M 0.0351562 18.050781 L 0 17.605469 L 0.445312 17.605469 L 0.445312 22.066406 L 0 22.066406 L -0.0390625 21.625 L 19.535156 19.867188 L 19.578125 20.3125 L 19.132812 20.3125 L 19.132812 15.566406 L 19.578125 15.566406 L 19.417969 15.980469 L 7.042969 11.222656 L 19.417969 6.464844 L 19.578125 6.882812 L 19.132812 6.882812 L 19.132812 2.136719 L 19.578125 2.136719 L 19.535156 2.578125 L -0.0390625 0.824219 L 0 0.378906 L 0.445312 0.378906 L 0.445312 4.839844 L 0 4.839844 L 0.0351562 4.398438 L 12.046875 5.355469 L 12.046875 6.199219 L 0.265625 10.316406 L 0.117188 9.894531 L 0.5625 9.894531 L 0.5625 12.550781 L 0.117188 12.550781 L 0.265625 12.132812 L 12.046875 16.246094 L 12.046875 17.09375 Z M 0.0351562 18.050781 "/></g></g></g></g><g clip-path="url(#a6a97f9754)"><g fill="#ffffff" fill-opacity="1"><g transform="translate(120.182264, 190.081378)"><g><path d="M 20.019531 0.980469 L 20.019531 6.328125 L -0.445312 6.328125 L -0.445312 0.980469 Z M 19.132812 1.867188 L 0.445312 1.867188 L 0.445312 5.441406 L 19.132812 5.441406 Z M 19.132812 1.867188 "/></g></g></g></g><g clip-path="url(#62b61a6917)"><g fill="#ffffff" fill-opacity="1"><g transform="translate(120.182264, 197.389921)"><g><path d="M 19.578125 16.914062 L 6.953125 16.914062 C 4.421875 16.914062 2.496094 16.21875 1.171875 14.828125 C -0.144531 13.445312 -0.800781 11.445312 -0.800781 8.828125 C -0.800781 6.210938 -0.144531 4.207031 1.171875 2.824219 C 2.496094 1.4375 4.421875 0.742188 6.953125 0.742188 L 20.019531 0.742188 L 20.019531 6.09375 L 8.257812 6.09375 C 6.78125 6.09375 5.773438 6.308594 5.238281 6.742188 C 4.730469 7.148438 4.480469 7.847656 4.480469 8.828125 C 4.480469 9.808594 4.730469 10.503906 5.238281 10.914062 C 5.773438 11.347656 6.78125 11.5625 8.257812 11.5625 L 20.019531 11.5625 L 20.019531 16.914062 Z M 19.578125 16.023438 L 19.578125 16.46875 L 19.132812 16.46875 L 19.132812 12.007812 L 19.578125 12.007812 L 19.578125 12.453125 L 8.257812 12.453125 C 6.570312 12.453125 5.378906 12.167969 4.679688 11.605469 C 3.953125 11.019531 3.589844 10.09375 3.589844 8.828125 C 3.589844 7.5625 3.953125 6.636719 4.679688 6.050781 C 5.378906 5.484375 6.570312 5.203125 8.257812 5.203125 L 19.578125 5.203125 L 19.578125 5.648438 L 19.132812 5.648438 L 19.132812 1.1875 L 19.578125 1.1875 L 19.578125 1.632812 L 6.953125 1.632812 C 4.675781 1.632812 2.964844 2.234375 1.816406 3.4375 C 0.664062 4.648438 0.0898438 6.445312 0.0898438 8.828125 C 0.0898438 11.207031 0.664062 13.003906 1.816406 14.214844 C 2.964844 15.421875 4.675781 16.023438 6.953125 16.023438 Z M 19.578125 16.023438 "/></g></g></g></g><g clip-path="url(#88673cbc0c)"><g fill="#ffffff" fill-opacity="1"><g transform="translate(120.182264, 215.044324)"><g><path d="M -0.0351562 17.164062 L 11.566406 16.238281 L 11.601562 16.679688 L 11.160156 16.679688 L 11.160156 16.5625 L 11.601562 16.5625 L 11.457031 16.984375 L -0.328125 12.867188 L -0.328125 9.578125 L 11.457031 5.464844 L 11.601562 5.886719 L 11.160156 5.886719 L 11.160156 5.765625 L 11.601562 5.765625 L 11.566406 6.210938 L -0.445312 5.25 L -0.445312 -0.105469 L 20.019531 1.730469 L 20.019531 7.1875 L 8.441406 11.640625 L 8.28125 11.222656 L 8.441406 10.808594 L 20.019531 15.261719 L 20.019531 20.71875 L -0.445312 22.554688 L -0.445312 17.195312 Z M 0.0351562 18.050781 L 0 17.605469 L 0.445312 17.605469 L 0.445312 22.066406 L 0 22.066406 L -0.0390625 21.625 L 19.535156 19.867188 L 19.578125 20.3125 L 19.132812 20.3125 L 19.132812 15.566406 L 19.578125 15.566406 L 19.417969 15.980469 L 7.042969 11.222656 L 19.417969 6.464844 L 19.578125 6.882812 L 19.132812 6.882812 L 19.132812 2.136719 L 19.578125 2.136719 L 19.535156 2.578125 L -0.0390625 0.824219 L 0 0.378906 L 0.445312 0.378906 L 0.445312 4.839844 L 0 4.839844 L 0.0351562 4.398438 L 12.046875 5.355469 L 12.046875 6.199219 L 0.265625 10.316406 L 0.117188 9.894531 L 0.5625 9.894531 L 0.5625 12.550781 L 0.117188 12.550781 L 0.265625 12.132812 L 12.046875 16.246094 L 12.046875 17.09375 Z M 0.0351562 18.050781 "/></g></g></g></g><path stroke-linecap="butt" transform="matrix(-0.000255416, 0.741531, -0.741531, -0.000255416, 112.616796, 14.639298)" fill="none" stroke-linejoin="miter" d="M 0.749992 0.499657 L 282.715226 0.502624 " stroke="#ffffff" stroke-width="1" stroke-opacity="1" stroke-miterlimit="4"/><path stroke-linecap="round" transform="matrix(-0.000255416, 0.741531, -0.741531, -0.000255416, 112.616796, 14.639298)" fill="none" stroke-linejoin="round" d="M 0.501888 -1.001586 L 0.497654 2.001072 " stroke="#ffffff" stroke-width="1" stroke-opacity="1" stroke-miterlimit="4"/><path stroke-linecap="round" transform="matrix(-0.000255416, 0.741531, -0.741531, -0.000255416, 112.616796, 14.639298)" fill="none" stroke-linejoin="round" d="M 282.962296 -0.998789 L 282.963328 1.998599 " stroke="#ffffff" stroke-width="1" stroke-opacity="1" stroke-miterlimit="4"/><path fill="#8c8a7d" d="M 14.015625 135.914062 L 16.832031 135.914062 L 16.832031 138.730469 L 14.015625 138.730469 Z M 14.015625 135.914062 " fill-opacity="1" fill-rule="nonzero"/><path fill="#8c8a7d" d="M 11.199219 138.730469 L 14.015625 138.730469 L 14.015625 141.546875 L 11.199219 141.546875 Z M 11.199219 138.730469 " fill-opacity="1" fill-rule="nonzero"/><path fill="#afba9b" d="M 14.015625 138.730469 L 16.832031 138.730469 L 16.832031 141.546875 L 14.015625 141.546875 Z M 14.015625 138.730469 " fill-opacity="1" fill-rule="nonzero"/><path fill="#8c8a7d" d="M 16.832031 138.730469 L 19.648438 138.730469 L 19.648438 141.546875 L 16.832031 141.546875 Z M 16.832031 138.730469 " fill-opacity="1" fill-rule="nonzero"/><path fill="#8c8a7d" d="M 28.09375 138.730469 L 30.910156 138.730469 L 30.910156 141.546875 L 28.09375 141.546875 Z M 28.09375 138.730469 " fill-opacity="1" fill-rule="nonzero"/><path fill="#8c8a7d" d="M 8.382812 141.546875 L 11.199219 141.546875 L 11.199219 144.363281 L 8.382812 144.363281 Z M 8.382812 141.546875 " fill-opacity="1" fill-rule="nonzero"/><path fill="#afba9b" d="M 11.199219 141.546875 L 14.015625 141.546875 L 14.015625 144.363281 L 11.199219 144.363281 Z M 11.199219 141.546875 " fill-opacity="1" fill-rule="nonzero"/><path fill="#8c8a7d" d="M 14.015625 141.546875 L 16.832031 141.546875 L 16.832031 144.363281 L 14.015625 144.363281 Z M 14.015625 141.546875 " fill-opacity="1" fill-rule="nonzero"/><path fill="#8e977d" d="M 16.832031 141.546875 L 19.648438 141.546875 L 19.648438 144.363281 L 16.832031 144.363281 Z M 16.832031 141.546875 " fill-opacity="1" fill-rule="nonzero"/><path fill="#8c8a7d" d="M 19.648438 141.546875 L 22.460938 141.546875 L 22.460938 144.363281 L 19.648438 144.363281 Z M 19.648438 141.546875 " fill-opacity="1" fill-rule="nonzero"/><path fill="#8c8a7d" d="M 25.277344 141.546875 L 28.09375 141.546875 L 28.09375 144.363281 L 25.277344 144.363281 Z M 25.277344 141.546875 " fill-opacity="1" fill-rule="nonzero"/><path fill="#afba9b" d="M 28.09375 141.546875 L 30.910156 141.546875 L 30.910156 144.363281 L 28.09375 144.363281 Z M 28.09375 141.546875 " fill-opacity="1" fill-rule="nonzero"/><path fill="#8c8a7d" d="M 30.910156 141.546875 L 33.722656 141.546875 L 33.722656 144.363281 L 30.910156 144.363281 Z M 30.910156 141.546875 " fill-opacity="1" fill-rule="nonzero"/><path fill="#8c8a7d" d="M 36.539062 141.546875 L 39.355469 141.546875 L 39.355469 144.363281 L 36.539062 144.363281 Z M 36.539062 141.546875 " fill-opacity="1" fill-rule="nonzero"/><path fill="#8c8a7d" d="M 5.570312 144.363281 L 8.382812 144.363281 L 8.382812 152.808594 L 5.570312 152.808594 Z M 5.570312 144.363281 " fill-opacity="1" fill-rule="nonzero"/><path fill="#afba9b" d="M 8.382812 144.363281 L 11.199219 144.363281 L 11.199219 152.808594 L 8.382812 152.808594 Z M 8.382812 144.363281 " fill-opacity="1" fill-rule="nonzero"/><path fill="#8c8a7d" d="M 11.199219 144.363281 L 14.015625 144.363281 L 14.015625 152.808594 L 11.199219 152.808594 Z M 11.199219 144.363281 " fill-opacity="1" fill-rule="nonzero"/><path fill="#8c8a7d" d="M 16.832031 144.363281 L 19.648438 144.363281 L 19.648438 147.175781 L 16.832031 147.175781 Z M 16.832031 144.363281 " fill-opacity="1" fill-rule="nonzero"/><path fill="#8c8a7d" d="M 22.460938 144.363281 L 25.277344 144.363281 L 25.277344 149.992188 L 22.460938 149.992188 Z M 22.460938 144.363281 " fill-opacity="1" fill-rule="nonzero"/><path fill="#afba9b" d="M 25.277344 144.363281 L 28.09375 144.363281 L 28.09375 149.992188 L 25.277344 149.992188 Z M 25.277344 144.363281 " fill-opacity="1" fill-rule="nonzero"/><path fill="#8c8a7d" d="M 28.09375 144.363281 L 30.910156 144.363281 L 30.910156 149.992188 L 28.09375 149.992188 Z M 28.09375 144.363281 " fill-opacity="1" fill-rule="nonzero"/><path fill="#8c8a7d" d="M 33.722656 144.363281 L 36.539062 144.363281 L 36.539062 147.175781 L 33.722656 147.175781 Z M 33.722656 144.363281 " fill-opacity="1" fill-rule="nonzero"/><path fill="#afba9b" d="M 36.539062 144.363281 L 39.355469 144.363281 L 39.355469 147.175781 L 36.539062 147.175781 Z M 36.539062 144.363281 " fill-opacity="1" fill-rule="nonzero"/><path fill="#8c8a7d" d="M 39.355469 144.363281 L 42.171875 144.363281 L 42.171875 147.175781 L 39.355469 147.175781 Z M 39.355469 144.363281 " fill-opacity="1" fill-rule="nonzero"/><path fill="#8c8a7d" d="M 30.910156 147.175781 L 33.722656 147.175781 L 33.722656 149.992188 L 30.910156 149.992188 Z M 30.910156 147.175781 " fill-opacity="1" fill-rule="nonzero"/><path fill="#afba9b" d="M 33.722656 147.175781 L 36.539062 147.175781 L 36.539062 149.992188 L 33.722656 149.992188 Z M 33.722656 147.175781 " fill-opacity="1" fill-rule="nonzero"/><path fill="#8c8a7d" d="M 36.539062 147.175781 L 39.355469 147.175781 L 39.355469 152.808594 L 36.539062 152.808594 Z M 36.539062 147.175781 " fill-opacity="1" fill-rule="nonzero"/><path fill="#afba9b" d="M 39.355469 147.175781 L 42.171875 147.175781 L 42.171875 152.808594 L 39.355469 152.808594 Z M 39.355469 147.175781 " fill-opacity="1" fill-rule="nonzero"/><path fill="#8c8a7d" d="M 42.171875 147.175781 L 44.984375 147.175781 L 44.984375 152.808594 L 42.171875 152.808594 Z M 42.171875 147.175781 " fill-opacity="1" fill-rule="nonzero"/><path fill="#8c8a7d" d="M 19.648438 149.992188 L 22.460938 149.992188 L 22.460938 152.808594 L 19.648438 152.808594 Z M 19.648438 149.992188 " fill-opacity="1" fill-rule="nonzero"/><path fill="#afba9b" d="M 22.460938 149.992188 L 25.277344 149.992188 L 25.277344 152.808594 L 22.460938 152.808594 Z M 22.460938 149.992188 " fill-opacity="1" fill-rule="nonzero"/><path fill="#8c8a7d" d="M 25.277344 149.992188 L 28.09375 149.992188 L 28.09375 152.808594 L 25.277344 152.808594 Z M 25.277344 149.992188 " fill-opacity="1" fill-rule="nonzero"/><path fill="#8c8a7d" d="M 33.722656 149.992188 L 36.539062 149.992188 L 36.539062 152.808594 L 33.722656 152.808594 Z M 33.722656 149.992188 " fill-opacity="1" fill-rule="nonzero"/><path fill="#8c8a7d" d="M 8.382812 152.808594 L 11.199219 152.808594 L 11.199219 158.441406 L 8.382812 158.441406 Z M 8.382812 152.808594 " fill-opacity="1" fill-rule="nonzero"/><path fill="#afba9b" d="M 11.199219 152.808594 L 14.015625 152.808594 L 14.015625 158.441406 L 11.199219 158.441406 Z M 11.199219 152.808594 " fill-opacity="1" fill-rule="nonzero"/><path fill="#8c8a7d" d="M 14.015625 152.808594 L 19.648438 152.808594 L 19.648438 158.441406 L 14.015625 158.441406 Z M 14.015625 152.808594 " fill-opacity="1" fill-rule="nonzero"/><path fill="#afba9b" d="M 19.648438 152.808594 L 22.460938 152.808594 L 22.460938 158.441406 L 19.648438 158.441406 Z M 19.648438 152.808594 " fill-opacity="1" fill-rule="nonzero"/><path fill="#8c8a7d" d="M 22.460938 152.808594 L 25.277344 152.808594 L 25.277344 158.441406 L 22.460938 158.441406 Z M 22.460938 152.808594 " fill-opacity="1" fill-rule="nonzero"/><path fill="#8c8a7d" d="M 39.355469 152.808594 L 42.171875 152.808594 L 42.171875 161.253906 L 39.355469 161.253906 Z M 39.355469 152.808594 " fill-opacity="1" fill-rule="nonzero"/><path fill="#afba9b" d="M 42.171875 152.808594 L 44.984375 152.808594 L 44.984375 161.253906 L 42.171875 161.253906 Z M 42.171875 152.808594 " fill-opacity="1" fill-rule="nonzero"/><path fill="#8c8a7d" d="M 44.984375 152.808594 L 47.800781 152.808594 L 47.800781 161.253906 L 44.984375 161.253906 Z M 44.984375 152.808594 " fill-opacity="1" fill-rule="nonzero"/><path fill="#8c8a7d" d="M 11.199219 158.441406 L 14.015625 158.441406 L 14.015625 169.703125 L 11.199219 169.703125 Z M 11.199219 158.441406 " fill-opacity="1" fill-rule="nonzero"/><path fill="#afba9b" d="M 14.015625 158.441406 L 16.832031 158.441406 L 16.832031 169.703125 L 14.015625 169.703125 Z M 14.015625 158.441406 " fill-opacity="1" fill-rule="nonzero"/><path fill="#8c8a7d" d="M 16.832031 158.441406 L 22.460938 158.441406 L 22.460938 164.070312 L 16.832031 164.070312 Z M 16.832031 158.441406 " fill-opacity="1" fill-rule="nonzero"/><path fill="#afba9b" d="M 22.460938 158.441406 L 25.277344 158.441406 L 25.277344 164.070312 L 22.460938 164.070312 Z M 22.460938 158.441406 " fill-opacity="1" fill-rule="nonzero"/><path fill="#8c8a7d" d="M 25.277344 158.441406 L 28.09375 158.441406 L 28.09375 164.070312 L 25.277344 164.070312 Z M 25.277344 158.441406 " fill-opacity="1" fill-rule="nonzero"/><path fill="#8c8a7d" d="M 36.539062 161.253906 L 39.355469 161.253906 L 39.355469 169.703125 L 36.539062 169.703125 Z M 36.539062 161.253906 " fill-opacity="1" fill-rule="nonzero"/><path fill="#afba9b" d="M 39.355469 161.253906 L 42.171875 161.253906 L 42.171875 169.703125 L 39.355469 169.703125 Z M 39.355469 161.253906 " fill-opacity="1" fill-rule="nonzero"/><path fill="#8c8a7d" d="M 42.171875 161.253906 L 44.984375 161.253906 L 44.984375 169.703125 L 42.171875 169.703125 Z M 42.171875 161.253906 " fill-opacity="1" fill-rule="nonzero"/><path fill="#8c8a7d" d="M 16.832031 164.070312 L 19.648438 164.070312 L 19.648438 169.703125 L 16.832031 169.703125 Z M 16.832031 164.070312 " fill-opacity="1" fill-rule="nonzero"/><path fill="#8c8a7d" d="M 22.460938 164.070312 L 25.277344 164.070312 L 25.277344 172.515625 L 22.460938 172.515625 Z M 22.460938 164.070312 " fill-opacity="1" fill-rule="nonzero"/><path fill="#afba9b" d="M 25.277344 164.070312 L 28.09375 164.070312 L 28.09375 172.515625 L 25.277344 172.515625 Z M 25.277344 164.070312 " fill-opacity="1" fill-rule="nonzero"/><path fill="#8c8a7d" d="M 28.09375 164.070312 L 30.910156 164.070312 L 30.910156 172.515625 L 28.09375 172.515625 Z M 28.09375 164.070312 " fill-opacity="1" fill-rule="nonzero"/><path fill="#8c8a7d" d="M 8.382812 169.703125 L 11.199219 169.703125 L 11.199219 175.332031 L 8.382812 175.332031 Z M 8.382812 169.703125 " fill-opacity="1" fill-rule="nonzero"/><path fill="#afba9b" d="M 11.199219 169.703125 L 14.015625 169.703125 L 14.015625 175.332031 L 11.199219 175.332031 Z M 11.199219 169.703125 " fill-opacity="1" fill-rule="nonzero"/><path fill="#8c8a7d" d="M 14.015625 169.703125 L 16.832031 169.703125 L 16.832031 175.332031 L 14.015625 175.332031 Z M 14.015625 169.703125 " fill-opacity="1" fill-rule="nonzero"/><path fill="#8c8a7d" d="M 33.722656 169.703125 L 36.539062 169.703125 L 36.539062 180.964844 L 33.722656 180.964844 Z M 33.722656 169.703125 " fill-opacity="1" fill-rule="nonzero"/><path fill="#afba9b" d="M 36.539062 169.703125 L 39.355469 169.703125 L 39.355469 180.964844 L 36.539062 180.964844 Z M 36.539062 169.703125 " fill-opacity="1" fill-rule="nonzero"/><path fill="#8c8a7d" d="M 39.355469 169.703125 L 42.171875 169.703125 L 42.171875 180.964844 L 39.355469 180.964844 Z M 39.355469 169.703125 " fill-opacity="1" fill-rule="nonzero"/><path fill="#8c8a7d" d="M 25.277344 172.515625 L 28.09375 172.515625 L 28.09375 175.332031 L 25.277344 175.332031 Z M 25.277344 172.515625 " fill-opacity="1" fill-rule="nonzero"/><path fill="#afba9b" d="M 28.09375 172.515625 L 30.910156 172.515625 L 30.910156 175.332031 L 28.09375 175.332031 Z M 28.09375 172.515625 " fill-opacity="1" fill-rule="nonzero"/><path fill="#8c8a7d" d="M 30.910156 172.515625 L 33.722656 172.515625 L 33.722656 175.332031 L 30.910156 175.332031 Z M 30.910156 172.515625 " fill-opacity="1" fill-rule="nonzero"/><path fill="#8c8a7d" d="M 5.570312 175.332031 L 8.382812 175.332031 L 8.382812 189.410156 L 5.570312 189.410156 Z M 5.570312 175.332031 " fill-opacity="1" fill-rule="nonzero"/><path fill="#afba9b" d="M 8.382812 175.332031 L 11.199219 175.332031 L 11.199219 186.59375 L 8.382812 186.59375 Z M 8.382812 175.332031 " fill-opacity="1" fill-rule="nonzero"/><path fill="#8c8a7d" d="M 11.199219 175.332031 L 14.015625 175.332031 L 14.015625 186.59375 L 11.199219 186.59375 Z M 11.199219 175.332031 " fill-opacity="1" fill-rule="nonzero"/><path fill="#8c8a7d" d="M 22.460938 175.332031 L 25.277344 175.332031 L 25.277344 178.148438 L 22.460938 178.148438 Z M 22.460938 175.332031 " fill-opacity="1" fill-rule="nonzero"/><path fill="#afba9b" d="M 25.277344 175.332031 L 28.09375 175.332031 L 28.09375 178.148438 L 25.277344 178.148438 Z M 25.277344 175.332031 " fill-opacity="1" fill-rule="nonzero"/><path fill="#8c8a7d" d="M 28.09375 175.332031 L 30.910156 175.332031 L 30.910156 178.148438 L 28.09375 178.148438 Z M 28.09375 175.332031 " fill-opacity="1" fill-rule="nonzero"/><path fill="#8c8a7d" d="M 19.648438 178.148438 L 22.460938 178.148438 L 22.460938 180.964844 L 19.648438 180.964844 Z M 19.648438 178.148438 " fill-opacity="1" fill-rule="nonzero"/><path fill="#afba9b" d="M 22.460938 178.148438 L 25.277344 178.148438 L 25.277344 180.964844 L 22.460938 180.964844 Z M 22.460938 178.148438 " fill-opacity="1" fill-rule="nonzero"/><path fill="#8c8a7d" d="M 25.277344 178.148438 L 28.09375 178.148438 L 28.09375 180.964844 L 25.277344 180.964844 Z M 25.277344 178.148438 " fill-opacity="1" fill-rule="nonzero"/><path fill="#8c8a7d" d="M 16.832031 180.964844 L 19.648438 180.964844 L 19.648438 186.59375 L 16.832031 186.59375 Z M 16.832031 180.964844 " fill-opacity="1" fill-rule="nonzero"/><path fill="#afba9b" d="M 19.648438 180.964844 L 22.460938 180.964844 L 22.460938 189.410156 L 19.648438 189.410156 Z M 19.648438 180.964844 " fill-opacity="1" fill-rule="nonzero"/><path fill="#8c8a7d" d="M 22.460938 180.964844 L 25.277344 180.964844 L 25.277344 186.59375 L 22.460938 186.59375 Z M 22.460938 180.964844 " fill-opacity="1" fill-rule="nonzero"/><path fill="#8c8a7d" d="M 30.910156 180.964844 L 33.722656 180.964844 L 33.722656 183.777344 L 30.910156 183.777344 Z M 30.910156 180.964844 " fill-opacity="1" fill-rule="nonzero"/><path fill="#afba9b" d="M 33.722656 180.964844 L 36.539062 180.964844 L 36.539062 183.777344 L 33.722656 183.777344 Z M 33.722656 180.964844 " fill-opacity="1" fill-rule="nonzero"/><path fill="#8c8a7d" d="M 36.539062 180.964844 L 39.355469 180.964844 L 39.355469 186.59375 L 36.539062 186.59375 Z M 36.539062 180.964844 " fill-opacity="1" fill-rule="nonzero"/><path fill="#8c8a7d" d="M 14.015625 183.777344 L 16.832031 183.777344 L 16.832031 186.59375 L 14.015625 186.59375 Z M 14.015625 183.777344 " fill-opacity="1" fill-rule="nonzero"/><path fill="#8c8a7d" d="M 25.277344 183.777344 L 30.910156 183.777344 L 30.910156 186.59375 L 25.277344 186.59375 Z M 25.277344 183.777344 " fill-opacity="1" fill-rule="nonzero"/><path fill="#afba9b" d="M 30.910156 183.777344 L 33.722656 183.777344 L 33.722656 186.59375 L 30.910156 186.59375 Z M 30.910156 183.777344 " fill-opacity="1" fill-rule="nonzero"/><path fill="#8c8a7d" d="M 33.722656 183.777344 L 36.539062 183.777344 L 36.539062 186.59375 L 33.722656 186.59375 Z M 33.722656 183.777344 " fill-opacity="1" fill-rule="nonzero"/><path fill="#8c8a7d" d="M 39.355469 183.777344 L 44.984375 183.777344 L 44.984375 186.59375 L 39.355469 186.59375 Z M 39.355469 183.777344 " fill-opacity="1" fill-rule="nonzero"/><path fill="#8c8a7d" d="M -5.691406 186.59375 L 5.570312 186.59375 L 5.570312 189.410156 L -5.691406 189.410156 Z M -5.691406 186.59375 " fill-opacity="1" fill-rule="nonzero"/><path fill="#ece7d1" d="M 8.382812 186.59375 L 11.199219 186.59375 L 11.199219 192.226562 L 8.382812 192.226562 Z M 8.382812 186.59375 " fill-opacity="1" fill-rule="nonzero"/><path fill="#afba9b" d="M 11.199219 186.59375 L 14.015625 186.59375 L 14.015625 192.226562 L 11.199219 192.226562 Z M 11.199219 186.59375 " fill-opacity="1" fill-rule="nonzero"/><path fill="#ffffff" d="M 14.015625 186.59375 L 19.648438 186.59375 L 19.648438 192.226562 L 14.015625 192.226562 Z M 14.015625 186.59375 " fill-opacity="1" fill-rule="nonzero"/><path fill="#ffffff" d="M 22.460938 186.59375 L 25.277344 186.59375 L 25.277344 189.410156 L 22.460938 189.410156 Z M 22.460938 186.59375 " fill-opacity="1" fill-rule="nonzero"/><path fill="#afba9b" d="M 25.277344 186.59375 L 30.910156 186.59375 L 30.910156 189.410156 L 25.277344 189.410156 Z M 25.277344 186.59375 " fill-opacity="1" fill-rule="nonzero"/><path fill="#ece7d1" d="M 30.910156 186.59375 L 44.984375 186.59375 L 44.984375 192.226562 L 30.910156 192.226562 Z M 30.910156 186.59375 " fill-opacity="1" fill-rule="nonzero"/><path fill="#8c8a7d" d="M 44.984375 186.59375 L 53.433594 186.59375 L 53.433594 189.410156 L 44.984375 189.410156 Z M 44.984375 186.59375 " fill-opacity="1" fill-rule="nonzero"/><path fill="#ece7d1" d="M -2.878906 189.410156 L 8.382812 189.410156 L 8.382812 195.039062 L -2.878906 195.039062 Z M -2.878906 189.410156 " fill-opacity="1" fill-rule="nonzero"/><path fill="#ffffff" d="M 19.648438 189.410156 L 22.460938 189.410156 L 22.460938 192.226562 L 19.648438 192.226562 Z M 19.648438 189.410156 " fill-opacity="1" fill-rule="nonzero"/><path fill="#afba9b" d="M 22.460938 189.410156 L 28.09375 189.410156 L 28.09375 197.855469 L 22.460938 197.855469 Z M 22.460938 189.410156 " fill-opacity="1" fill-rule="nonzero"/><path fill="#ece7d1" d="M 28.09375 189.410156 L 30.910156 189.410156 L 30.910156 192.226562 L 28.09375 192.226562 Z M 28.09375 189.410156 " fill-opacity="1" fill-rule="nonzero"/><path fill="#ece7d1" d="M 44.984375 189.410156 L 53.433594 189.410156 L 53.433594 195.039062 L 44.984375 195.039062 Z M 44.984375 189.410156 " fill-opacity="1" fill-rule="nonzero"/><path fill="#8c8a7d" d="M 53.433594 189.410156 L 56.25 189.410156 L 56.25 192.226562 L 53.433594 192.226562 Z M 53.433594 189.410156 " fill-opacity="1" fill-rule="nonzero"/><path fill="#d9d4c1" d="M 8.382812 192.226562 L 14.015625 192.226562 L 14.015625 195.039062 L 8.382812 195.039062 Z M 8.382812 192.226562 " fill-opacity="1" fill-rule="nonzero"/><path fill="#afba9b" d="M 14.015625 192.226562 L 16.832031 192.226562 L 16.832031 197.855469 L 14.015625 197.855469 Z M 14.015625 192.226562 " fill-opacity="1" fill-rule="nonzero"/><path fill="#8a6f30" d="M 16.832031 192.226562 L 22.460938 192.226562 L 22.460938 195.039062 L 16.832031 195.039062 Z M 16.832031 192.226562 " fill-opacity="1" fill-rule="nonzero"/><path fill="#afba9b" d="M 28.09375 192.226562 L 30.910156 192.226562 L 30.910156 197.855469 L 28.09375 197.855469 Z M 28.09375 192.226562 " fill-opacity="1" fill-rule="nonzero"/><path fill="#8a6f30" d="M 30.910156 192.226562 L 36.539062 192.226562 L 36.539062 195.039062 L 30.910156 195.039062 Z M 30.910156 192.226562 " fill-opacity="1" fill-rule="nonzero"/><path fill="#d9d4c1" d="M 36.539062 192.226562 L 42.171875 192.226562 L 42.171875 195.039062 L 36.539062 195.039062 Z M 36.539062 192.226562 " fill-opacity="1" fill-rule="nonzero"/><path fill="#ece7d1" d="M 42.171875 192.226562 L 44.984375 192.226562 L 44.984375 195.039062 L 42.171875 195.039062 Z M 42.171875 192.226562 " fill-opacity="1" fill-rule="nonzero"/><path fill="#ece7d1" d="M 53.433594 192.226562 L 56.25 192.226562 L 56.25 200.671875 L 53.433594 200.671875 Z M 53.433594 192.226562 " fill-opacity="1" fill-rule="nonzero"/><path fill="#8c8a7d" d="M 56.25 192.226562 L 59.0625 192.226562 L 59.0625 195.039062 L 56.25 195.039062 Z M 56.25 192.226562 " fill-opacity="1" fill-rule="nonzero"/><path fill="#ece7d1" d="M -2.878906 195.039062 L 2.753906 195.039062 L 2.753906 203.488281 L -2.878906 203.488281 Z M -2.878906 195.039062 " fill-opacity="1" fill-rule="nonzero"/><path fill="#d9d4c1" d="M 2.753906 195.039062 L 5.570312 195.039062 L 5.570312 197.855469 L 2.753906 197.855469 Z M 2.753906 195.039062 " fill-opacity="1" fill-rule="nonzero"/><path fill="#8a6f30" d="M 5.570312 195.039062 L 14.015625 195.039062 L 14.015625 197.855469 L 5.570312 197.855469 Z M 5.570312 195.039062 " fill-opacity="1" fill-rule="nonzero"/><path fill="#afba9b" d="M 16.832031 195.039062 L 22.460938 195.039062 L 22.460938 197.855469 L 16.832031 197.855469 Z M 16.832031 195.039062 " fill-opacity="1" fill-rule="nonzero"/><path fill="#afba9b" d="M 30.910156 195.039062 L 36.539062 195.039062 L 36.539062 197.855469 L 30.910156 197.855469 Z M 30.910156 195.039062 " fill-opacity="1" fill-rule="nonzero"/><path fill="#8a6f30" d="M 36.539062 195.039062 L 44.984375 195.039062 L 44.984375 197.855469 L 36.539062 197.855469 Z M 36.539062 195.039062 " fill-opacity="1" fill-rule="nonzero"/><path fill="#d9d4c1" d="M 44.984375 195.039062 L 47.800781 195.039062 L 47.800781 197.855469 L 44.984375 197.855469 Z M 44.984375 195.039062 " fill-opacity="1" fill-rule="nonzero"/><path fill="#ece7d1" d="M 47.800781 195.039062 L 53.433594 195.039062 L 53.433594 203.488281 L 47.800781 203.488281 Z M 47.800781 195.039062 " fill-opacity="1" fill-rule="nonzero"/><path fill="#ece7d1" d="M 56.25 195.039062 L 59.0625 195.039062 L 59.0625 197.855469 L 56.25 197.855469 Z M 56.25 195.039062 " fill-opacity="1" fill-rule="nonzero"/><path fill="#8c8a7d" d="M 59.0625 195.039062 L 64.695312 195.039062 L 64.695312 197.855469 L 59.0625 197.855469 Z M 59.0625 195.039062 " fill-opacity="1" fill-rule="nonzero"/><path fill="#ece7d1" d="M 2.753906 197.855469 L 8.382812 197.855469 L 8.382812 203.488281 L 2.753906 203.488281 Z M 2.753906 197.855469 " fill-opacity="1" fill-rule="nonzero"/><path fill="#8a6f30" d="M 8.382812 197.855469 L 42.171875 197.855469 L 42.171875 200.671875 L 8.382812 200.671875 Z M 8.382812 197.855469 " fill-opacity="1" fill-rule="nonzero"/><path fill="#ece7d1" d="M 42.171875 197.855469 L 47.800781 197.855469 L 47.800781 203.488281 L 42.171875 203.488281 Z M 42.171875 197.855469 " fill-opacity="1" fill-rule="nonzero"/><path fill="#d9d4c1" d="M 56.25 197.855469 L 59.0625 197.855469 L 59.0625 200.671875 L 56.25 200.671875 Z M 56.25 197.855469 " fill-opacity="1" fill-rule="nonzero"/><path fill="#ece7d1" d="M 59.0625 197.855469 L 64.695312 197.855469 L 64.695312 203.488281 L 59.0625 203.488281 Z M 59.0625 197.855469 " fill-opacity="1" fill-rule="nonzero"/><path fill="#8c8a7d" d="M 64.695312 197.855469 L 70.324219 197.855469 L 70.324219 200.671875 L 64.695312 200.671875 Z M 64.695312 197.855469 " fill-opacity="1" fill-rule="nonzero"/><path fill="#ece7d1" d="M 8.382812 200.671875 L 42.171875 200.671875 L 42.171875 206.304688 L 8.382812 206.304688 Z M 8.382812 200.671875 " fill-opacity="1" fill-rule="nonzero"/><path fill="#d9d4c1" d="M 53.433594 200.671875 L 56.25 200.671875 L 56.25 203.488281 L 53.433594 203.488281 Z M 53.433594 200.671875 " fill-opacity="1" fill-rule="nonzero"/><path fill="#ece7d1" d="M 56.25 200.671875 L 59.0625 200.671875 L 59.0625 228.828125 L 56.25 228.828125 Z M 56.25 200.671875 " fill-opacity="1" fill-rule="nonzero"/><path fill="#d9d4c1" d="M 64.695312 200.671875 L 70.324219 200.671875 L 70.324219 203.488281 L 64.695312 203.488281 Z M 64.695312 200.671875 " fill-opacity="1" fill-rule="nonzero"/><path fill="#8c8a7d" d="M 70.324219 200.671875 L 73.140625 200.671875 L 73.140625 203.488281 L 70.324219 203.488281 Z M 70.324219 200.671875 " fill-opacity="1" fill-rule="nonzero"/><path fill="#d9d4c1" d="M -2.878906 203.488281 L 8.382812 203.488281 L 8.382812 206.304688 L -2.878906 206.304688 Z M -2.878906 203.488281 " fill-opacity="1" fill-rule="nonzero"/><path fill="#d9d4c1" d="M 42.171875 203.488281 L 53.433594 203.488281 L 53.433594 206.304688 L 42.171875 206.304688 Z M 42.171875 203.488281 " fill-opacity="1" fill-rule="nonzero"/><path fill="#ece7d1" d="M 53.433594 203.488281 L 56.25 203.488281 L 56.25 231.640625 L 53.433594 231.640625 Z M 53.433594 203.488281 " fill-opacity="1" fill-rule="nonzero"/><path fill="#ece7d1" d="M 59.0625 203.488281 L 61.878906 203.488281 L 61.878906 214.75 L 59.0625 214.75 Z M 59.0625 203.488281 " fill-opacity="1" fill-rule="nonzero"/><path fill="#d9d4c1" d="M 61.878906 203.488281 L 67.511719 203.488281 L 67.511719 206.304688 L 61.878906 206.304688 Z M 61.878906 203.488281 " fill-opacity="1" fill-rule="nonzero"/><path fill="#ece7d1" d="M 67.511719 203.488281 L 73.140625 203.488281 L 73.140625 209.117188 L 67.511719 209.117188 Z M 67.511719 203.488281 " fill-opacity="1" fill-rule="nonzero"/><path fill="#8c8a7d" d="M 73.140625 203.488281 L 75.957031 203.488281 L 75.957031 206.304688 L 73.140625 206.304688 Z M 73.140625 203.488281 " fill-opacity="1" fill-rule="nonzero"/><path fill="#d9d4c1" d="M -0.0625 206.304688 L 2.753906 206.304688 L 2.753906 209.117188 L -0.0625 209.117188 Z M -0.0625 206.304688 " fill-opacity="1" fill-rule="nonzero"/><g clip-path="url(#73a9c41ff9)"><path fill="#ece7d1" d="M 2.753906 206.304688 L 5.570312 206.304688 L 5.570312 242.90625 L 2.753906 242.90625 Z M 2.753906 206.304688 " fill-opacity="1" fill-rule="nonzero"/></g><path fill="#d9d4c1" d="M 5.570312 206.304688 L 42.171875 206.304688 L 42.171875 209.117188 L 5.570312 209.117188 Z M 5.570312 206.304688 " fill-opacity="1" fill-rule="nonzero"/><g clip-path="url(#0bdce3b8ee)"><path fill="#ece7d1" d="M 42.171875 206.304688 L 53.433594 206.304688 L 53.433594 240.089844 L 42.171875 240.089844 Z M 42.171875 206.304688 " fill-opacity="1" fill-rule="nonzero"/></g><path fill="#8c8a7d" d="M 61.878906 206.304688 L 67.511719 206.304688 L 67.511719 209.117188 L 61.878906 209.117188 Z M 61.878906 206.304688 " fill-opacity="1" fill-rule="nonzero"/><path fill="#ece7d1" d="M 73.140625 206.304688 L 75.957031 206.304688 L 75.957031 231.640625 L 73.140625 231.640625 Z M 73.140625 206.304688 " fill-opacity="1" fill-rule="nonzero"/><path fill="#8c8a7d" d="M 75.957031 206.304688 L 78.773438 206.304688 L 78.773438 209.117188 L 75.957031 209.117188 Z M 75.957031 206.304688 " fill-opacity="1" fill-rule="nonzero"/><path fill="#ece7d1" d="M -0.0625 209.117188 L 2.753906 209.117188 L 2.753906 234.457031 L -0.0625 234.457031 Z M -0.0625 209.117188 " fill-opacity="1" fill-rule="nonzero"/><g clip-path="url(#4f2ddcd235)"><path fill="#ece7d1" d="M 5.570312 209.117188 L 42.171875 209.117188 L 42.171875 245.71875 L 5.570312 245.71875 Z M 5.570312 209.117188 " fill-opacity="1" fill-rule="nonzero"/></g><path fill="#8c8a7d" d="M 61.878906 209.117188 L 64.695312 209.117188 L 64.695312 214.75 L 61.878906 214.75 Z M 61.878906 209.117188 " fill-opacity="1" fill-rule="nonzero"/><path fill="#8c8a7d" d="M 67.511719 209.117188 L 70.324219 209.117188 L 70.324219 211.933594 L 67.511719 211.933594 Z M 67.511719 209.117188 " fill-opacity="1" fill-rule="nonzero"/><path fill="#ece7d1" d="M 70.324219 209.117188 L 73.140625 209.117188 L 73.140625 211.933594 L 70.324219 211.933594 Z M 70.324219 209.117188 " fill-opacity="1" fill-rule="nonzero"/><path fill="#ece7d1" d="M 75.957031 209.117188 L 78.773438 209.117188 L 78.773438 223.195312 L 75.957031 223.195312 Z M 75.957031 209.117188 " fill-opacity="1" fill-rule="nonzero"/><path fill="#8c8a7d" d="M 78.773438 209.117188 L 81.585938 209.117188 L 81.585938 223.195312 L 78.773438 223.195312 Z M 78.773438 209.117188 " fill-opacity="1" fill-rule="nonzero"/><path fill="#8c8a7d" d="M 70.324219 211.933594 L 73.140625 211.933594 L 73.140625 223.195312 L 70.324219 223.195312 Z M 70.324219 211.933594 " fill-opacity="1" fill-rule="nonzero"/><path fill="#8c8a7d" d="M 59.0625 214.75 L 61.878906 214.75 L 61.878906 234.457031 L 59.0625 234.457031 Z M 59.0625 214.75 " fill-opacity="1" fill-rule="nonzero"/><path fill="#8c8a7d" d="M 67.511719 223.195312 L 70.324219 223.195312 L 70.324219 231.640625 L 67.511719 231.640625 Z M 67.511719 223.195312 " fill-opacity="1" fill-rule="nonzero"/><path fill="#ece7d1" d="M 70.324219 223.195312 L 73.140625 223.195312 L 73.140625 237.273438 L 70.324219 237.273438 Z M 70.324219 223.195312 " fill-opacity="1" fill-rule="nonzero"/><path fill="#8c8a7d" d="M 75.957031 223.195312 L 78.773438 223.195312 L 78.773438 231.640625 L 75.957031 231.640625 Z M 75.957031 223.195312 " fill-opacity="1" fill-rule="nonzero"/><path fill="#d9d4c1" d="M 56.25 228.828125 L 59.0625 228.828125 L 59.0625 231.640625 L 56.25 231.640625 Z M 56.25 228.828125 " fill-opacity="1" fill-rule="nonzero"/><path fill="#d9d4c1" d="M 53.433594 231.640625 L 56.25 231.640625 L 56.25 234.457031 L 53.433594 234.457031 Z M 53.433594 231.640625 " fill-opacity="1" fill-rule="nonzero"/><path fill="#ece7d1" d="M 56.25 231.640625 L 59.0625 231.640625 L 59.0625 234.457031 L 56.25 234.457031 Z M 56.25 231.640625 " fill-opacity="1" fill-rule="nonzero"/><path fill="#8c8a7d" d="M 64.695312 231.640625 L 67.511719 231.640625 L 67.511719 237.273438 L 64.695312 237.273438 Z M 64.695312 231.640625 " fill-opacity="1" fill-rule="nonzero"/><g clip-path="url(#217f41d929)"><path fill="#ece7d1" d="M 67.511719 231.640625 L 70.324219 231.640625 L 70.324219 242.90625 L 67.511719 242.90625 Z M 67.511719 231.640625 " fill-opacity="1" fill-rule="nonzero"/></g><path fill="#8c8a7d" d="M 73.140625 231.640625 L 75.957031 231.640625 L 75.957031 237.273438 L 73.140625 237.273438 Z M 73.140625 231.640625 " fill-opacity="1" fill-rule="nonzero"/><path fill="#d9d4c1" d="M -0.0625 234.457031 L 2.753906 234.457031 L 2.753906 237.273438 L -0.0625 237.273438 Z M -0.0625 234.457031 " fill-opacity="1" fill-rule="nonzero"/><path fill="#ece7d1" d="M 53.433594 234.457031 L 56.25 234.457031 L 56.25 237.273438 L 53.433594 237.273438 Z M 53.433594 234.457031 " fill-opacity="1" fill-rule="nonzero"/><g clip-path="url(#48977db577)"><path fill="#8c8a7d" d="M 56.25 234.457031 L 59.0625 234.457031 L 59.0625 245.71875 L 56.25 245.71875 Z M 56.25 234.457031 " fill-opacity="1" fill-rule="nonzero"/></g><g clip-path="url(#0d302f2346)"><path fill="#ece7d1" d="M -0.0625 237.273438 L 2.753906 237.273438 L 2.753906 240.089844 L -0.0625 240.089844 Z M -0.0625 237.273438 " fill-opacity="1" fill-rule="nonzero"/></g><g clip-path="url(#48971e8ef7)"><path fill="#d9d4c1" d="M 53.433594 237.273438 L 56.25 237.273438 L 56.25 240.089844 L 53.433594 240.089844 Z M 53.433594 237.273438 " fill-opacity="1" fill-rule="nonzero"/></g><g clip-path="url(#2389095240)"><path fill="#8c8a7d" d="M 61.878906 237.273438 L 64.695312 237.273438 L 64.695312 242.90625 L 61.878906 242.90625 Z M 61.878906 237.273438 " fill-opacity="1" fill-rule="nonzero"/></g><g clip-path="url(#529ef24f50)"><path fill="#ece7d1" d="M 64.695312 237.273438 L 67.511719 237.273438 L 67.511719 245.71875 L 64.695312 245.71875 Z M 64.695312 237.273438 " fill-opacity="1" fill-rule="nonzero"/></g><g clip-path="url(#b008d65254)"><path fill="#8c8a7d" d="M 70.324219 237.273438 L 73.140625 237.273438 L 73.140625 242.90625 L 70.324219 242.90625 Z M 70.324219 237.273438 " fill-opacity="1" fill-rule="nonzero"/></g><g fill="#8e977d" fill-opacity="1"><g transform="translate(14.013184, 33.482637)"><g><path d="M 19.25 0 L 13.09375 0 L 5.890625 -8.3125 L 5.890625 0 L 1.421875 0 L 1.421875 -19.578125 L 5.890625 -19.578125 L 5.890625 -11.578125 L 12.609375 -19.578125 L 18.015625 -19.578125 L 10.140625 -10.296875 Z M 19.25 0 "/></g></g></g><g fill="#8e977d" fill-opacity="1"><g transform="translate(32.687939, 33.482637)"><g><path d="M 0.546875 -9.796875 C 0.546875 -12.628906 1.507812 -15.023438 3.4375 -16.984375 C 5.375 -18.953125 7.703125 -19.9375 10.421875 -19.9375 C 13.160156 -19.9375 15.484375 -18.957031 17.390625 -17 C 19.304688 -15.050781 20.265625 -12.648438 20.265625 -9.796875 C 20.265625 -6.929688 19.320312 -4.519531 17.4375 -2.5625 C 15.5625 -0.613281 13.222656 0.359375 10.421875 0.359375 C 7.554688 0.359375 5.191406 -0.609375 3.328125 -2.546875 C 1.472656 -4.484375 0.546875 -6.898438 0.546875 -9.796875 Z M 5.359375 -9.796875 C 5.359375 -8.773438 5.515625 -7.835938 5.828125 -6.984375 C 6.148438 -6.140625 6.707031 -5.425781 7.5 -4.84375 C 8.289062 -4.257812 9.265625 -3.96875 10.421875 -3.96875 C 12.078125 -3.96875 13.328125 -4.535156 14.171875 -5.671875 C 15.023438 -6.804688 15.453125 -8.179688 15.453125 -9.796875 C 15.453125 -11.398438 15.019531 -12.773438 14.15625 -13.921875 C 13.289062 -15.066406 12.046875 -15.640625 10.421875 -15.640625 C 8.804688 -15.640625 7.554688 -15.066406 6.671875 -13.921875 C 5.796875 -12.773438 5.359375 -11.398438 5.359375 -9.796875 Z M 5.359375 -9.796875 "/></g></g></g><g fill="#8e977d" fill-opacity="1"><g transform="translate(14.013184, 66.11)"><g><path d="M 1.421875 -19.578125 L 8.5625 -19.578125 C 10.5625 -19.578125 12.175781 -19.0625 13.40625 -18.03125 C 14.644531 -17.007812 15.265625 -15.515625 15.265625 -13.546875 C 15.265625 -11.585938 14.640625 -10.050781 13.390625 -8.9375 C 12.140625 -7.820312 10.53125 -7.265625 8.5625 -7.265625 L 5.890625 -7.265625 L 5.890625 0 L 1.421875 0 Z M 5.890625 -10.828125 L 7.140625 -10.828125 C 8.140625 -10.828125 8.957031 -11.023438 9.59375 -11.421875 C 10.238281 -11.828125 10.5625 -12.488281 10.5625 -13.40625 C 10.5625 -14.34375 10.238281 -15.007812 9.59375 -15.40625 C 8.957031 -15.8125 8.140625 -16.015625 7.140625 -16.015625 L 5.890625 -16.015625 Z M 5.890625 -10.828125 "/></g></g></g><g fill="#8e977d" fill-opacity="1"><g transform="translate(29.816724, 66.11)"><g><path d="M 5.890625 -19.578125 L 5.890625 0 L 1.421875 0 L 1.421875 -19.578125 Z M 5.890625 -19.578125 "/></g></g></g><g fill="#8e977d" fill-opacity="1"><g transform="translate(37.125267, 66.11)"><g><path d="M 1.421875 -19.578125 L 8.5625 -19.578125 C 10.5625 -19.578125 12.175781 -19.0625 13.40625 -18.03125 C 14.644531 -17.007812 15.265625 -15.515625 15.265625 -13.546875 C 15.265625 -11.585938 14.640625 -10.050781 13.390625 -8.9375 C 12.140625 -7.820312 10.53125 -7.265625 8.5625 -7.265625 L 5.890625 -7.265625 L 5.890625 0 L 1.421875 0 Z M 5.890625 -10.828125 L 7.140625 -10.828125 C 8.140625 -10.828125 8.957031 -11.023438 9.59375 -11.421875 C 10.238281 -11.828125 10.5625 -12.488281 10.5625 -13.40625 C 10.5625 -14.34375 10.238281 -15.007812 9.59375 -15.40625 C 8.957031 -15.8125 8.140625 -16.015625 7.140625 -16.015625 L 5.890625 -16.015625 Z M 5.890625 -10.828125 "/></g></g></g><g fill="#8e977d" fill-opacity="1"><g transform="translate(14.013184, 98.737364)"><g><path d="M 0.546875 -9.796875 C 0.546875 -12.628906 1.507812 -15.023438 3.4375 -16.984375 C 5.375 -18.953125 7.703125 -19.9375 10.421875 -19.9375 C 13.160156 -19.9375 15.484375 -18.957031 17.390625 -17 C 19.304688 -15.050781 20.265625 -12.648438 20.265625 -9.796875 C 20.265625 -6.929688 19.320312 -4.519531 17.4375 -2.5625 C 15.5625 -0.613281 13.222656 0.359375 10.421875 0.359375 C 7.554688 0.359375 5.191406 -0.609375 3.328125 -2.546875 C 1.472656 -4.484375 0.546875 -6.898438 0.546875 -9.796875 Z M 5.359375 -9.796875 C 5.359375 -8.773438 5.515625 -7.835938 5.828125 -6.984375 C 6.148438 -6.140625 6.707031 -5.425781 7.5 -4.84375 C 8.289062 -4.257812 9.265625 -3.96875 10.421875 -3.96875 C 12.078125 -3.96875 13.328125 -4.535156 14.171875 -5.671875 C 15.023438 -6.804688 15.453125 -8.179688 15.453125 -9.796875 C 15.453125 -11.398438 15.019531 -12.773438 14.15625 -13.921875 C 13.289062 -15.066406 12.046875 -15.640625 10.421875 -15.640625 C 8.804688 -15.640625 7.554688 -15.066406 6.671875 -13.921875 C 5.796875 -12.773438 5.359375 -11.398438 5.359375 -9.796875 Z M 5.359375 -9.796875 "/></g></g></g><g fill="#8e977d" fill-opacity="1"><g transform="translate(34.823551, 98.737364)"><g><path d="M 19.25 0 L 13.09375 0 L 5.890625 -8.3125 L 5.890625 0 L 1.421875 0 L 1.421875 -19.578125 L 5.890625 -19.578125 L 5.890625 -11.578125 L 12.609375 -19.578125 L 18.015625 -19.578125 L 10.140625 -10.296875 Z M 19.25 0 "/></g></g></g><g fill="#ffffff" fill-opacity="1"><g transform="translate(57.730041, 13.610071)"><g><path d="M 4.03125 11.84375 C 4.03125 12.519531 4.132812 13.175781 4.34375 13.8125 C 4.550781 14.457031 4.75 14.929688 4.9375 15.234375 L 5.25 15.6875 L 1.453125 17.59375 C 1.398438 17.53125 1.332031 17.441406 1.25 17.328125 C 1.175781 17.210938 1.03125 16.953125 0.8125 16.546875 C 0.601562 16.148438 0.421875 15.722656 0.265625 15.265625 C 0.109375 14.804688 -0.03125 14.203125 -0.15625 13.453125 C -0.289062 12.710938 -0.359375 11.945312 -0.359375 11.15625 C -0.359375 9.332031 0.0859375 7.601562 0.984375 5.96875 C 1.878906 4.34375 3.109375 3.03125 4.671875 2.03125 C 6.242188 1.039062 7.9375 0.546875 9.75 0.546875 C 11.125 0.546875 12.445312 0.835938 13.71875 1.421875 C 14.988281 2.003906 16.070312 2.78125 16.96875 3.75 C 17.875 4.726562 18.59375 5.863281 19.125 7.15625 C 19.664062 8.457031 19.9375 9.789062 19.9375 11.15625 C 19.9375 12.414062 19.785156 13.582031 19.484375 14.65625 C 19.179688 15.726562 18.878906 16.484375 18.578125 16.921875 L 18.140625 17.59375 L 14.328125 15.6875 C 14.429688 15.570312 14.546875 15.40625 14.671875 15.1875 C 14.804688 14.96875 14.984375 14.523438 15.203125 13.859375 C 15.429688 13.191406 15.546875 12.519531 15.546875 11.84375 C 15.546875 10.769531 15.367188 9.804688 15.015625 8.953125 C 14.671875 8.097656 14.210938 7.421875 13.640625 6.921875 C 13.078125 6.421875 12.46875 6.039062 11.8125 5.78125 C 11.15625 5.519531 10.484375 5.390625 9.796875 5.390625 C 8.316406 5.390625 6.984375 5.945312 5.796875 7.0625 C 4.617188 8.175781 4.03125 9.769531 4.03125 11.84375 Z M 4.03125 11.84375 "/></g></g></g><g fill="#ffffff" fill-opacity="1"><g transform="translate(57.730041, 38.122154)"><g><path d="M 19.578125 11.375 L 0 19.265625 L 0 14.484375 L 3.921875 13.03125 L 3.921875 5.578125 L 0 4.125 L 0 -0.671875 L 19.578125 7.234375 Z M 7.828125 11.515625 L 13.53125 9.328125 L 13.53125 9.28125 L 7.828125 7.09375 Z M 7.828125 11.515625 "/></g></g></g><g fill="#ffffff" fill-opacity="1"><g transform="translate(57.730041, 63.369838)"><g><path d="M 19.578125 12.75 L 15.671875 12.75 L 15.671875 5.890625 L 11.765625 5.890625 L 11.765625 12.21875 L 7.859375 12.21875 L 7.859375 5.890625 L 0 5.890625 L 0 1.421875 L 19.578125 1.421875 Z M 19.578125 12.75 "/></g></g></g><g fill="#ffffff" fill-opacity="1"><g transform="translate(57.730041, 83.468319)"><g><path d="M 27.34375 3.4375 L 23.171875 8.265625 L 21.34375 6.9375 L 24.609375 1.28125 Z M 19.578125 12.625 L 15.671875 12.625 L 15.671875 5.890625 L 11.765625 5.890625 L 11.765625 12.34375 L 7.859375 12.34375 L 7.859375 5.890625 L 3.921875 5.890625 L 3.921875 12.625 L 0 12.625 L 0 1.421875 L 19.578125 1.421875 Z M 19.578125 12.625 "/></g></g></g><g fill="#ffffff" fill-opacity="1"><g transform="translate(96.630293, 118.718432)"><g><path d="M 6.078125 2.9375 L 0 2.9375 L 0 0.71875 L 9.78125 0.71875 L 9.78125 2.9375 L 3.71875 6.828125 L 3.71875 6.859375 L 9.78125 6.859375 L 9.78125 9.078125 L 0 9.078125 L 0 6.859375 L 6.078125 2.96875 Z M 6.078125 2.9375 "/></g></g></g><g fill="#ffffff" fill-opacity="1"><g transform="translate(96.630293, 128.518531)"><g><path d="M 4.890625 0.265625 C 6.304688 0.265625 7.503906 0.75 8.484375 1.71875 C 9.472656 2.6875 9.96875 3.847656 9.96875 5.203125 C 9.96875 6.578125 9.476562 7.738281 8.5 8.6875 C 7.519531 9.644531 6.316406 10.125 4.890625 10.125 C 3.460938 10.125 2.257812 9.65625 1.28125 8.71875 C 0.3125 7.78125 -0.171875 6.609375 -0.171875 5.203125 C -0.171875 3.773438 0.3125 2.59375 1.28125 1.65625 C 2.25 0.726562 3.453125 0.265625 4.890625 0.265625 Z M 4.890625 2.6875 C 4.378906 2.6875 3.910156 2.765625 3.484375 2.921875 C 3.066406 3.078125 2.710938 3.351562 2.421875 3.75 C 2.128906 4.144531 1.984375 4.628906 1.984375 5.203125 C 1.984375 6.035156 2.265625 6.660156 2.828125 7.078125 C 3.398438 7.503906 4.085938 7.71875 4.890625 7.71875 C 5.691406 7.71875 6.378906 7.5 6.953125 7.0625 C 7.523438 6.632812 7.8125 6.015625 7.8125 5.203125 C 7.8125 4.398438 7.523438 3.78125 6.953125 3.34375 C 6.378906 2.90625 5.691406 2.6875 4.890625 2.6875 Z M 4.890625 2.6875 "/></g></g></g><g fill="#ffffff" fill-opacity="1"><g transform="translate(96.630293, 138.923715)"><g><path d="M 2.53125 2.0625 C 2.53125 2.4375 2.398438 2.753906 2.140625 3.015625 C 1.878906 3.285156 1.554688 3.421875 1.171875 3.421875 C 0.796875 3.421875 0.476562 3.285156 0.21875 3.015625 C -0.0390625 2.753906 -0.171875 2.4375 -0.171875 2.0625 C -0.171875 1.6875 -0.0390625 1.367188 0.21875 1.109375 C 0.476562 0.847656 0.796875 0.71875 1.171875 0.71875 C 1.554688 0.71875 1.878906 0.847656 2.140625 1.109375 C 2.398438 1.367188 2.53125 1.6875 2.53125 2.0625 Z M 2.53125 2.0625 "/></g></g></g><g fill="#ffffff" fill-opacity="1"><g transform="translate(96.630293, 143.064435)"><g/></g></g><g fill="#ffffff" fill-opacity="1"><g transform="translate(96.630293, 146.303451)"><g><path d="M 5.78125 0.34375 L 7.984375 0.34375 L 9.78125 3.125 L 9.78125 4.1875 L 0 4.1875 L 0 1.953125 L 6.8125 1.953125 Z M 5.78125 0.34375 "/></g></g></g><g fill="#ffffff" fill-opacity="1"><g transform="translate(96.630293, 151.2035)"><g><path d="M 8.078125 4.3125 C 8.078125 3.988281 7.921875 3.679688 7.609375 3.390625 C 7.296875 3.109375 6.984375 2.898438 6.671875 2.765625 L 6.21875 2.5625 L 7.109375 0.703125 C 7.191406 0.722656 7.296875 0.757812 7.421875 0.8125 C 7.546875 0.875 7.769531 1.003906 8.09375 1.203125 C 8.425781 1.410156 8.71875 1.640625 8.96875 1.890625 C 9.21875 2.140625 9.445312 2.476562 9.65625 2.90625 C 9.863281 3.34375 9.96875 3.8125 9.96875 4.3125 C 9.96875 4.945312 9.882812 5.503906 9.71875 5.984375 C 9.550781 6.460938 9.347656 6.832031 9.109375 7.09375 C 8.867188 7.351562 8.582031 7.5625 8.25 7.71875 C 7.925781 7.882812 7.628906 7.988281 7.359375 8.03125 C 7.097656 8.070312 6.816406 8.09375 6.515625 8.09375 C 6.085938 8.09375 5.640625 7.972656 5.171875 7.734375 C 4.703125 7.503906 4.285156 7.21875 3.921875 6.875 C 3.554688 6.539062 3.21875 6.203125 2.90625 5.859375 C 2.601562 5.523438 2.367188 5.238281 2.203125 5 L 1.953125 4.65625 L 1.953125 8.28125 L 0 8.28125 L 0 0.65625 L 0.5625 0.65625 C 0.664062 0.789062 0.8125 0.972656 1 1.203125 C 1.195312 1.429688 1.566406 1.832031 2.109375 2.40625 C 2.660156 2.976562 3.175781 3.484375 3.65625 3.921875 C 4.132812 4.367188 4.644531 4.773438 5.1875 5.140625 C 5.738281 5.503906 6.179688 5.6875 6.515625 5.6875 C 6.648438 5.6875 6.785156 5.671875 6.921875 5.640625 C 7.054688 5.617188 7.21875 5.566406 7.40625 5.484375 C 7.601562 5.410156 7.765625 5.269531 7.890625 5.0625 C 8.015625 4.851562 8.078125 4.601562 8.078125 4.3125 Z M 8.078125 4.3125 "/></g></g></g><g fill="#ffffff" fill-opacity="1"><g transform="translate(96.630293, 160.13748)"><g><path d="M 6.96875 2.4375 L 7.8125 0.671875 C 7.863281 0.691406 7.9375 0.71875 8.03125 0.75 C 8.132812 0.78125 8.3125 0.875 8.5625 1.03125 C 8.8125 1.1875 9.03125 1.367188 9.21875 1.578125 C 9.40625 1.796875 9.578125 2.109375 9.734375 2.515625 C 9.890625 2.929688 9.96875 3.394531 9.96875 3.90625 C 9.96875 4.84375 9.695312 5.613281 9.15625 6.21875 C 8.625 6.820312 7.941406 7.125 7.109375 7.125 C 6.335938 7.125 5.726562 6.835938 5.28125 6.265625 C 4.769531 7.085938 4.019531 7.5 3.03125 7.5 C 2.101562 7.5 1.335938 7.15625 0.734375 6.46875 C 0.128906 5.789062 -0.171875 4.925781 -0.171875 3.875 C -0.171875 3.3125 -0.09375 2.800781 0.0625 2.34375 C 0.226562 1.882812 0.425781 1.523438 0.65625 1.265625 C 0.894531 1.015625 1.132812 0.800781 1.375 0.625 C 1.613281 0.457031 1.816406 0.34375 1.984375 0.28125 L 2.234375 0.203125 L 3.234375 2.265625 C 3.191406 2.265625 3.140625 2.269531 3.078125 2.28125 C 3.015625 2.289062 2.894531 2.332031 2.71875 2.40625 C 2.539062 2.476562 2.382812 2.566406 2.25 2.671875 C 2.125 2.773438 2.007812 2.929688 1.90625 3.140625 C 1.800781 3.347656 1.75 3.585938 1.75 3.859375 C 1.75 4.285156 1.863281 4.628906 2.09375 4.890625 C 2.320312 5.148438 2.632812 5.28125 3.03125 5.28125 C 3.457031 5.28125 3.800781 5.140625 4.0625 4.859375 C 4.332031 4.585938 4.46875 4.253906 4.46875 3.859375 L 4.40625 3.4375 L 5.859375 3.4375 L 5.859375 3.921875 C 5.859375 4.234375 5.972656 4.503906 6.203125 4.734375 C 6.441406 4.972656 6.738281 5.09375 7.09375 5.09375 C 7.394531 5.09375 7.648438 4.972656 7.859375 4.734375 C 8.066406 4.492188 8.171875 4.210938 8.171875 3.890625 C 8.171875 3.660156 8.128906 3.453125 8.046875 3.265625 C 7.960938 3.078125 7.859375 2.929688 7.734375 2.828125 C 7.617188 2.734375 7.5 2.648438 7.375 2.578125 C 7.257812 2.515625 7.164062 2.476562 7.09375 2.46875 Z M 6.96875 2.4375 "/></g></g></g><g fill="#ffffff" fill-opacity="1"><g transform="translate(96.630293, 168.02738)"><g><path d="M 4.015625 6.609375 L 4.015625 7.75 L 2.0625 7.75 L 2.0625 6.609375 L 0 6.609375 L 0 4.515625 L 2.0625 4.515625 L 2.0625 -0.296875 L 2.734375 -0.296875 L 9.78125 4.40625 L 9.78125 6.609375 Z M 6.8125 4.515625 L 6.8125 4.5 L 4.015625 2.75 L 4.015625 4.515625 Z M 6.8125 4.515625 "/></g></g></g><g fill="#ffffff" fill-opacity="1"><g transform="translate(96.630293, 175.92915)"><g><path d="M 1.9375 0.21875 L 2.796875 1.984375 C 2.054688 2.203125 1.6875 2.773438 1.6875 3.703125 C 1.6875 4.109375 1.816406 4.441406 2.078125 4.703125 C 2.347656 4.960938 2.6875 5.09375 3.09375 5.09375 C 3.507812 5.09375 3.847656 4.960938 4.109375 4.703125 C 4.378906 4.453125 4.566406 4.144531 4.671875 3.78125 C 4.773438 3.425781 4.828125 3.019531 4.828125 2.5625 C 4.828125 1.914062 4.722656 1.359375 4.515625 0.890625 L 9.78125 1.703125 L 9.78125 6.703125 L 7.828125 6.703125 L 7.828125 3.609375 L 6.46875 3.40625 C 6.46875 3.425781 6.46875 3.46875 6.46875 3.53125 C 6.46875 3.59375 6.46875 3.640625 6.46875 3.671875 C 6.46875 4.171875 6.410156 4.625 6.296875 5.03125 C 6.191406 5.4375 6.015625 5.816406 5.765625 6.171875 C 5.523438 6.535156 5.171875 6.816406 4.703125 7.015625 C 4.242188 7.222656 3.6875 7.328125 3.03125 7.328125 C 2.101562 7.328125 1.335938 6.984375 0.734375 6.296875 C 0.128906 5.617188 -0.171875 4.753906 -0.171875 3.703125 C -0.171875 2.742188 0.03125 1.972656 0.4375 1.390625 C 0.851562 0.816406 1.351562 0.425781 1.9375 0.21875 Z M 1.9375 0.21875 "/></g></g></g><g fill="#ffffff" fill-opacity="1"><g transform="translate(96.630293, 183.534312)"><g><path d="M 9.78125 6.875 L 6.421875 4 C 6.515625 4.164062 6.5625 4.398438 6.5625 4.703125 C 6.5625 5.046875 6.488281 5.394531 6.34375 5.75 C 6.195312 6.101562 5.988281 6.4375 5.71875 6.75 C 5.445312 7.0625 5.085938 7.316406 4.640625 7.515625 C 4.191406 7.710938 3.691406 7.8125 3.140625 7.8125 C 2.585938 7.8125 2.09375 7.707031 1.65625 7.5 C 1.21875 7.289062 0.867188 7.007812 0.609375 6.65625 C 0.347656 6.300781 0.148438 5.914062 0.015625 5.5 C -0.109375 5.082031 -0.171875 4.644531 -0.171875 4.1875 C -0.171875 3.082031 0.144531 2.15625 0.78125 1.40625 C 1.425781 0.65625 2.210938 0.28125 3.140625 0.28125 C 3.929688 0.28125 4.582031 0.390625 5.09375 0.609375 C 5.601562 0.835938 6.253906 1.242188 7.046875 1.828125 L 9.78125 4.125 Z M 3.140625 2.59375 C 2.710938 2.59375 2.359375 2.726562 2.078125 3 C 1.796875 3.28125 1.65625 3.640625 1.65625 4.078125 C 1.65625 4.515625 1.796875 4.875 2.078125 5.15625 C 2.359375 5.4375 2.710938 5.578125 3.140625 5.578125 C 3.578125 5.578125 3.9375 5.429688 4.21875 5.140625 C 4.507812 4.859375 4.65625 4.503906 4.65625 4.078125 C 4.65625 3.671875 4.507812 3.320312 4.21875 3.03125 C 3.9375 2.738281 3.578125 2.59375 3.140625 2.59375 Z M 3.140625 2.59375 "/></g></g></g><g fill="#ffffff" fill-opacity="1"><g transform="translate(96.630293, 191.708963)"><g><path d="M 9.78125 8.453125 L 9.125 8.453125 L 0 3.28125 L 0 0.65625 L 7.828125 5.15625 L 7.828125 0.953125 L 9.78125 0.953125 Z M 9.78125 8.453125 "/></g></g></g><g fill="#ffffff" fill-opacity="1"><g transform="translate(96.630293, 199.871755)"><g><path d="M 7.5 7.265625 C 6.507812 7.265625 5.769531 6.847656 5.28125 6.015625 C 5.039062 6.535156 4.695312 6.953125 4.25 7.265625 C 3.8125 7.578125 3.269531 7.734375 2.625 7.734375 C 1.832031 7.734375 1.164062 7.363281 0.625 6.625 C 0.09375 5.882812 -0.171875 5.035156 -0.171875 4.078125 C -0.171875 3.097656 0.09375 2.242188 0.625 1.515625 C 1.15625 0.785156 1.820312 0.421875 2.625 0.421875 C 3.875 0.421875 4.757812 0.988281 5.28125 2.125 C 5.769531 1.257812 6.507812 0.828125 7.5 0.828125 C 8.1875 0.828125 8.769531 1.15625 9.25 1.8125 C 9.726562 2.476562 9.96875 3.226562 9.96875 4.0625 C 9.96875 4.925781 9.726562 5.675781 9.25 6.3125 C 8.78125 6.945312 8.195312 7.265625 7.5 7.265625 Z M 7.171875 5.15625 C 7.492188 5.15625 7.757812 5.050781 7.96875 4.84375 C 8.175781 4.644531 8.28125 4.390625 8.28125 4.078125 C 8.28125 3.765625 8.175781 3.503906 7.96875 3.296875 C 7.757812 3.085938 7.492188 2.984375 7.171875 2.984375 C 6.859375 2.984375 6.597656 3.085938 6.390625 3.296875 C 6.179688 3.503906 6.078125 3.765625 6.078125 4.078125 C 6.078125 4.390625 6.175781 4.644531 6.375 4.84375 C 6.582031 5.050781 6.847656 5.15625 7.171875 5.15625 Z M 3.875 3.171875 C 3.644531 2.941406 3.347656 2.828125 2.984375 2.828125 C 2.617188 2.828125 2.320312 2.941406 2.09375 3.171875 C 1.863281 3.398438 1.75 3.695312 1.75 4.0625 C 1.75 4.414062 1.863281 4.710938 2.09375 4.953125 C 2.320312 5.191406 2.617188 5.3125 2.984375 5.3125 C 3.347656 5.3125 3.644531 5.191406 3.875 4.953125 C 4.113281 4.710938 4.234375 4.414062 4.234375 4.0625 C 4.234375 3.707031 4.113281 3.410156 3.875 3.171875 Z M 3.875 3.171875 "/></g></g></g><g fill="#ffffff" fill-opacity="1"><g transform="translate(96.630293, 208.022678)"><g><path d="M 0 1.296875 L 3.359375 4.171875 C 3.265625 4.003906 3.21875 3.769531 3.21875 3.46875 C 3.21875 3.125 3.289062 2.773438 3.4375 2.421875 C 3.582031 2.066406 3.789062 1.734375 4.0625 1.421875 C 4.332031 1.109375 4.691406 0.851562 5.140625 0.65625 C 5.597656 0.457031 6.097656 0.359375 6.640625 0.359375 C 7.191406 0.359375 7.6875 0.460938 8.125 0.671875 C 8.5625 0.878906 8.910156 1.160156 9.171875 1.515625 C 9.429688 1.867188 9.628906 2.253906 9.765625 2.671875 C 9.898438 3.085938 9.96875 3.523438 9.96875 3.984375 C 9.96875 5.085938 9.644531 6.015625 9 6.765625 C 8.363281 7.515625 7.578125 7.890625 6.640625 7.890625 C 5.847656 7.890625 5.195312 7.773438 4.6875 7.546875 C 4.175781 7.328125 3.523438 6.925781 2.734375 6.34375 L 0 4.046875 Z M 6.640625 5.578125 C 7.066406 5.578125 7.421875 5.4375 7.703125 5.15625 C 7.984375 4.882812 8.125 4.53125 8.125 4.09375 C 8.125 3.65625 7.984375 3.289062 7.703125 3 C 7.421875 2.71875 7.066406 2.578125 6.640625 2.578125 C 6.203125 2.578125 5.835938 2.722656 5.546875 3.015625 C 5.265625 3.304688 5.125 3.664062 5.125 4.09375 C 5.125 4.5 5.265625 4.847656 5.546875 5.140625 C 5.835938 5.429688 6.203125 5.578125 6.640625 5.578125 Z M 6.640625 5.578125 "/></g></g></g><g fill="#ffffff" fill-opacity="1"><g transform="translate(96.630293, 216.197329)"><g><path d="M 4.890625 0.328125 C 6.503906 0.328125 7.753906 0.707031 8.640625 1.46875 C 9.523438 2.238281 9.96875 3.1875 9.96875 4.3125 C 9.96875 5.4375 9.523438 6.378906 8.640625 7.140625 C 7.753906 7.910156 6.503906 8.296875 4.890625 8.296875 C 4.003906 8.296875 3.226562 8.1875 2.5625 7.96875 C 1.90625 7.757812 1.378906 7.460938 0.984375 7.078125 C 0.597656 6.703125 0.304688 6.285156 0.109375 5.828125 C -0.078125 5.367188 -0.171875 4.863281 -0.171875 4.3125 C -0.171875 3.769531 -0.078125 3.265625 0.109375 2.796875 C 0.304688 2.335938 0.597656 1.914062 0.984375 1.53125 C 1.378906 1.15625 1.90625 0.859375 2.5625 0.640625 C 3.226562 0.429688 4.003906 0.328125 4.890625 0.328125 Z M 4.890625 2.578125 C 3.847656 2.578125 3.066406 2.726562 2.546875 3.03125 C 2.035156 3.332031 1.78125 3.757812 1.78125 4.3125 C 1.78125 4.863281 2.035156 5.285156 2.546875 5.578125 C 3.066406 5.878906 3.847656 6.03125 4.890625 6.03125 C 5.878906 6.03125 6.644531 5.878906 7.1875 5.578125 C 7.726562 5.273438 8 4.851562 8 4.3125 C 8 3.78125 7.722656 3.359375 7.171875 3.046875 C 6.628906 2.734375 5.867188 2.578125 4.890625 2.578125 Z M 4.890625 2.578125 "/></g></g></g></svg>