<svg xmlns="http://www.w3.org/2000/svg" xmlns:xlink="http://www.w3.org/1999/xlink" width="189" zoomAndPan="magnify" viewBox="0 0 141.75 240.749997" height="321" preserveAspectRatio="xMidYMid meet" version="1.0"><defs><filter x="0%" y="0%" width="100%" height="100%" id="2c5238a12a"><feColorMatrix values="0 0 0 0 1 0 0 0 0 1 0 0 0 0 1 0 0 0 1 0" color-interpolation-filters="sRGB"/></filter><g/><clipPath id="0b0d98d279"><path d="M 0 0.0859375 L 141.5 0.0859375 L 141.5 240.414062 L 0 240.414062 Z M 0 0.0859375 " clip-rule="nonzero"/></clipPath><clipPath id="7a52cbd426"><path d="M 0 0.0859375 L 141.386719 0.0859375 L 141.386719 240.21875 L 0 240.21875 Z M 0 0.0859375 " clip-rule="nonzero"/></clipPath><clipPath id="db6c49f07f"><path d="M 62.964844 0.0859375 L 141.5 0.0859375 L 141.5 173.789062 L 62.964844 173.789062 Z M 62.964844 0.0859375 " clip-rule="nonzero"/></clipPath><clipPath id="a0d9c747c3"><path d="M 0.964844 0.0859375 L 79.5 0.0859375 L 79.5 173.789062 L 0.964844 173.789062 Z M 0.964844 0.0859375 " clip-rule="nonzero"/></clipPath><clipPath id="887b5687b2"><path d="M 2.460938 0.0859375 L 79.5 0.0859375 L 79.5 170.796875 L 2.460938 170.796875 Z M 2.460938 0.0859375 " clip-rule="nonzero"/></clipPath><linearGradient x1="-6.861131" gradientTransform="matrix(0, 0.748363, -0.748073, 0, 81.757937, 5.221765)" y1="22" x2="221.249978" gradientUnits="userSpaceOnUse" y2="22" id="aa5e55b52e"><stop stop-opacity="1" stop-color="rgb(100%, 87.059021%, 34.899902%)" offset="0"/><stop stop-opacity="1" stop-color="rgb(100%, 87.059021%, 34.899902%)" offset="0.03125"/><stop stop-opacity="1" stop-color="rgb(100%, 87.011719%, 34.892273%)" offset="0.046875"/><stop stop-opacity="1" stop-color="rgb(100%, 86.790466%, 34.857178%)" offset="0.0546875"/><stop stop-opacity="1" stop-color="rgb(100%, 86.44104%, 34.802246%)" offset="0.0625"/><stop stop-opacity="1" stop-color="rgb(100%, 86.091614%, 34.74884%)" offset="0.0703125"/><stop stop-opacity="1" stop-color="rgb(100%, 85.742188%, 34.693909%)" offset="0.078125"/><stop stop-opacity="1" stop-color="rgb(100%, 85.392761%, 34.638977%)" offset="0.0859375"/><stop stop-opacity="1" stop-color="rgb(100%, 85.041809%, 34.585571%)" offset="0.09375"/><stop stop-opacity="1" stop-color="rgb(100%, 84.692383%, 34.53064%)" offset="0.101562"/><stop stop-opacity="1" stop-color="rgb(100%, 84.342957%, 34.475708%)" offset="0.109375"/><stop stop-opacity="1" stop-color="rgb(100%, 83.99353%, 34.422302%)" offset="0.117188"/><stop stop-opacity="1" stop-color="rgb(100%, 83.644104%, 34.367371%)" offset="0.125"/><stop stop-opacity="1" stop-color="rgb(100%, 83.293152%, 34.312439%)" offset="0.132812"/><stop stop-opacity="1" stop-color="rgb(100%, 82.943726%, 34.259033%)" offset="0.140625"/><stop stop-opacity="1" stop-color="rgb(100%, 82.594299%, 34.204102%)" offset="0.148438"/><stop stop-opacity="1" stop-color="rgb(100%, 82.244873%, 34.14917%)" offset="0.15625"/><stop stop-opacity="1" stop-color="rgb(100%, 81.895447%, 34.095764%)" offset="0.164063"/><stop stop-opacity="1" stop-color="rgb(100%, 81.544495%, 34.040833%)" offset="0.171875"/><stop stop-opacity="1" stop-color="rgb(100%, 81.195068%, 33.985901%)" offset="0.179688"/><stop stop-opacity="1" stop-color="rgb(100%, 80.845642%, 33.932495%)" offset="0.1875"/><stop stop-opacity="1" stop-color="rgb(100%, 80.496216%, 33.877563%)" offset="0.195312"/><stop stop-opacity="1" stop-color="rgb(100%, 80.14679%, 33.822632%)" offset="0.203125"/><stop stop-opacity="1" stop-color="rgb(100%, 79.795837%, 33.769226%)" offset="0.210938"/><stop stop-opacity="1" stop-color="rgb(100%, 79.446411%, 33.714294%)" offset="0.21875"/><stop stop-opacity="1" stop-color="rgb(100%, 79.096985%, 33.659363%)" offset="0.226563"/><stop stop-opacity="1" stop-color="rgb(100%, 78.747559%, 33.605957%)" offset="0.234375"/><stop stop-opacity="1" stop-color="rgb(100%, 78.398132%, 33.551025%)" offset="0.242188"/><stop stop-opacity="1" stop-color="rgb(100%, 78.04718%, 33.496094%)" offset="0.25"/><stop stop-opacity="1" stop-color="rgb(100%, 77.697754%, 33.442688%)" offset="0.257812"/><stop stop-opacity="1" stop-color="rgb(100%, 77.348328%, 33.387756%)" offset="0.265625"/><stop stop-opacity="1" stop-color="rgb(100%, 76.998901%, 33.332825%)" offset="0.273437"/><stop stop-opacity="1" stop-color="rgb(100%, 76.649475%, 33.279419%)" offset="0.28125"/><stop stop-opacity="1" stop-color="rgb(100%, 76.298523%, 33.224487%)" offset="0.289062"/><stop stop-opacity="1" stop-color="rgb(100%, 75.949097%, 33.169556%)" offset="0.296875"/><stop stop-opacity="1" stop-color="rgb(100%, 75.59967%, 33.11615%)" offset="0.304688"/><stop stop-opacity="1" stop-color="rgb(100%, 75.250244%, 33.061218%)" offset="0.3125"/><stop stop-opacity="1" stop-color="rgb(100%, 74.900818%, 33.006287%)" offset="0.320312"/><stop stop-opacity="1" stop-color="rgb(100%, 74.549866%, 32.952881%)" offset="0.328125"/><stop stop-opacity="1" stop-color="rgb(100%, 74.200439%, 32.897949%)" offset="0.335938"/><stop stop-opacity="1" stop-color="rgb(100%, 73.851013%, 32.843018%)" offset="0.34375"/><stop stop-opacity="1" stop-color="rgb(100%, 73.501587%, 32.789612%)" offset="0.351562"/><stop stop-opacity="1" stop-color="rgb(100%, 73.152161%, 32.73468%)" offset="0.359375"/><stop stop-opacity="1" stop-color="rgb(100%, 72.801208%, 32.679749%)" offset="0.367188"/><stop stop-opacity="1" stop-color="rgb(100%, 72.451782%, 32.626343%)" offset="0.375"/><stop stop-opacity="1" stop-color="rgb(100%, 72.102356%, 32.571411%)" offset="0.382812"/><stop stop-opacity="1" stop-color="rgb(100%, 71.75293%, 32.516479%)" offset="0.390625"/><stop stop-opacity="1" stop-color="rgb(100%, 71.403503%, 32.463074%)" offset="0.398438"/><stop stop-opacity="1" stop-color="rgb(100%, 71.052551%, 32.408142%)" offset="0.40625"/><stop stop-opacity="1" stop-color="rgb(100%, 70.703125%, 32.35321%)" offset="0.414062"/><stop stop-opacity="1" stop-color="rgb(100%, 70.353699%, 32.299805%)" offset="0.421875"/><stop stop-opacity="1" stop-color="rgb(100%, 70.004272%, 32.244873%)" offset="0.429688"/><stop stop-opacity="1" stop-color="rgb(100%, 69.654846%, 32.189941%)" offset="0.4375"/><stop stop-opacity="1" stop-color="rgb(100%, 69.303894%, 32.136536%)" offset="0.445312"/><stop stop-opacity="1" stop-color="rgb(100%, 68.954468%, 32.081604%)" offset="0.453125"/><stop stop-opacity="1" stop-color="rgb(100%, 68.605042%, 32.026672%)" offset="0.460938"/><stop stop-opacity="1" stop-color="rgb(100%, 68.255615%, 31.973267%)" offset="0.46875"/><stop stop-opacity="1" stop-color="rgb(100%, 67.906189%, 31.918335%)" offset="0.476563"/><stop stop-opacity="1" stop-color="rgb(100%, 67.555237%, 31.863403%)" offset="0.484375"/><stop stop-opacity="1" stop-color="rgb(100%, 67.205811%, 31.809998%)" offset="0.492188"/><stop stop-opacity="1" stop-color="rgb(100%, 66.856384%, 31.755066%)" offset="0.5"/><stop stop-opacity="1" stop-color="rgb(100%, 66.506958%, 31.700134%)" offset="0.507812"/><stop stop-opacity="1" stop-color="rgb(100%, 66.157532%, 31.646729%)" offset="0.515625"/><stop stop-opacity="1" stop-color="rgb(100%, 65.808105%, 31.591797%)" offset="0.523438"/><stop stop-opacity="1" stop-color="rgb(100%, 65.457153%, 31.536865%)" offset="0.53125"/><stop stop-opacity="1" stop-color="rgb(100%, 65.107727%, 31.483459%)" offset="0.539062"/><stop stop-opacity="1" stop-color="rgb(100%, 64.758301%, 31.428528%)" offset="0.546875"/><stop stop-opacity="1" stop-color="rgb(100%, 64.408875%, 31.373596%)" offset="0.554688"/><stop stop-opacity="1" stop-color="rgb(100%, 64.059448%, 31.32019%)" offset="0.5625"/><stop stop-opacity="1" stop-color="rgb(100%, 63.708496%, 31.265259%)" offset="0.570312"/><stop stop-opacity="1" stop-color="rgb(100%, 63.35907%, 31.210327%)" offset="0.578125"/><stop stop-opacity="1" stop-color="rgb(100%, 63.009644%, 31.156921%)" offset="0.585938"/><stop stop-opacity="1" stop-color="rgb(100%, 62.660217%, 31.10199%)" offset="0.59375"/><stop stop-opacity="1" stop-color="rgb(100%, 62.310791%, 31.047058%)" offset="0.601562"/><stop stop-opacity="1" stop-color="rgb(100%, 61.959839%, 30.993652%)" offset="0.609375"/><stop stop-opacity="1" stop-color="rgb(100%, 61.610413%, 30.938721%)" offset="0.617188"/><stop stop-opacity="1" stop-color="rgb(100%, 61.260986%, 30.883789%)" offset="0.625"/><stop stop-opacity="1" stop-color="rgb(100%, 60.91156%, 30.830383%)" offset="0.632812"/><stop stop-opacity="1" stop-color="rgb(100%, 60.562134%, 30.775452%)" offset="0.640625"/><stop stop-opacity="1" stop-color="rgb(100%, 60.211182%, 30.72052%)" offset="0.648437"/><stop stop-opacity="1" stop-color="rgb(100%, 59.861755%, 30.667114%)" offset="0.65625"/><stop stop-opacity="1" stop-color="rgb(100%, 59.512329%, 30.612183%)" offset="0.664062"/><stop stop-opacity="1" stop-color="rgb(100%, 59.162903%, 30.557251%)" offset="0.671875"/><stop stop-opacity="1" stop-color="rgb(100%, 58.813477%, 30.503845%)" offset="0.679688"/><stop stop-opacity="1" stop-color="rgb(100%, 58.462524%, 30.448914%)" offset="0.6875"/><stop stop-opacity="1" stop-color="rgb(100%, 58.113098%, 30.393982%)" offset="0.695312"/><stop stop-opacity="1" stop-color="rgb(100%, 57.763672%, 30.340576%)" offset="0.703125"/><stop stop-opacity="1" stop-color="rgb(100%, 57.414246%, 30.285645%)" offset="0.710938"/><stop stop-opacity="1" stop-color="rgb(100%, 57.064819%, 30.230713%)" offset="0.71875"/><stop stop-opacity="1" stop-color="rgb(100%, 56.874084%, 30.200195%)" offset="0.75"/><stop stop-opacity="1" stop-color="rgb(100%, 56.858826%, 30.198669%)" offset="1"/></linearGradient><clipPath id="7950c63815"><rect x="0" width="80" y="0" height="174"/></clipPath><clipPath id="e60bc31230"><path d="M 0.964844 0.0859375 L 79.5 0.0859375 L 79.5 173.789062 L 0.964844 173.789062 Z M 0.964844 0.0859375 " clip-rule="nonzero"/></clipPath><clipPath id="6418e94911"><path d="M 58 8 L 79.5 8 L 79.5 28 L 58 28 Z M 58 8 " clip-rule="nonzero"/></clipPath><clipPath id="1a1a8300e4"><path d="M 58 39 L 79.5 39 L 79.5 60 L 58 60 Z M 58 39 " clip-rule="nonzero"/></clipPath><clipPath id="a8adbd834a"><path d="M 59 71 L 79.5 71 L 79.5 84 L 59 84 Z M 59 71 " clip-rule="nonzero"/></clipPath><clipPath id="0afb85a2d4"><path d="M 59 96 L 79.5 96 L 79.5 112 L 59 112 Z M 59 96 " clip-rule="nonzero"/></clipPath><clipPath id="f9644b8ab1"><rect x="0" width="80" y="0" height="174"/></clipPath><clipPath id="2a216abd57"><rect x="0" width="80" y="0" height="174"/></clipPath><mask id="e5d235a2cc"><g filter="url(#2c5238a12a)"><g transform="matrix(1, 0, 0, 1, 0.000000000000007105, 0.000000000000018346)"><g clip-path="url(#2a216abd57)"><g clip-path="url(#e60bc31230)"><g transform="matrix(1, 0, 0, 1, 0.000000000000007105, 0.000000000000018346)"><g clip-path="url(#f9644b8ab1)"><g clip-path="url(#6418e94911)"><g fill="#000000" fill-opacity="1"><g transform="translate(59.315734, 7.985842)"><g><path d="M 11.0625 19.296875 L 6.78125 19.296875 C 4.425781 18.785156 2.644531 17.664062 1.4375 15.9375 C 0.238281 14.21875 -0.359375 12.296875 -0.359375 10.171875 C -0.359375 7.503906 0.632812 5.234375 2.625 3.359375 C 4.625 1.484375 7.035156 0.546875 9.859375 0.546875 C 12.734375 0.546875 15.160156 1.460938 17.140625 3.296875 C 19.117188 5.140625 20.109375 7.429688 20.109375 10.171875 C 20.109375 13.378906 18.984375 15.914062 16.734375 17.78125 L 13.5 14.84375 C 15.1875 13.789062 16.03125 12.320312 16.03125 10.4375 C 16.03125 9.050781 15.425781 7.863281 14.21875 6.875 C 13.019531 5.894531 11.566406 5.40625 9.859375 5.40625 C 8.179688 5.40625 6.75 5.894531 5.5625 6.875 C 4.375 7.863281 3.78125 9.050781 3.78125 10.4375 C 3.78125 11.582031 4.125 12.582031 4.8125 13.4375 C 5.507812 14.289062 6.4375 14.71875 7.59375 14.71875 L 7.59375 10.171875 L 11.0625 10.171875 Z M 11.0625 19.296875 "/></g></g></g></g><g clip-path="url(#1a1a8300e4)"><g fill="#000000" fill-opacity="1"><g transform="translate(59.315734, 38.603052)"><g><path d="M 9.890625 0.546875 C 12.742188 0.546875 15.160156 1.519531 17.140625 3.46875 C 19.117188 5.414062 20.109375 7.765625 20.109375 10.515625 C 20.109375 13.273438 19.117188 15.617188 17.140625 17.546875 C 15.171875 19.472656 12.753906 20.4375 9.890625 20.4375 C 6.992188 20.4375 4.5625 19.488281 2.59375 17.59375 C 0.625 15.695312 -0.359375 13.335938 -0.359375 10.515625 C -0.359375 7.617188 0.613281 5.234375 2.5625 3.359375 C 4.519531 1.484375 6.960938 0.546875 9.890625 0.546875 Z M 9.890625 5.40625 C 8.847656 5.40625 7.898438 5.566406 7.046875 5.890625 C 6.191406 6.210938 5.46875 6.769531 4.875 7.5625 C 4.289062 8.363281 4 9.347656 4 10.515625 C 4 12.179688 4.570312 13.441406 5.71875 14.296875 C 6.863281 15.148438 8.253906 15.578125 9.890625 15.578125 C 11.492188 15.578125 12.875 15.140625 14.03125 14.265625 C 15.195312 13.398438 15.78125 12.148438 15.78125 10.515625 C 15.78125 8.878906 15.195312 7.617188 14.03125 6.734375 C 12.875 5.847656 11.492188 5.40625 9.890625 5.40625 Z M 9.890625 5.40625 "/></g></g></g></g><g clip-path="url(#a8adbd834a)"><g fill="#000000" fill-opacity="1"><g transform="translate(59.315734, 70.369299)"><g><path d="M 19.75 5.9375 L 3.953125 5.9375 L 3.953125 12.734375 L 0 12.734375 L 0 1.4375 L 19.75 1.4375 Z M 19.75 5.9375 "/></g></g></g></g><g clip-path="url(#0afb85a2d4)"><g fill="#000000" fill-opacity="1"><g transform="translate(59.315734, 94.666759)"><g><path d="M 19.75 1.4375 L 19.75 7.15625 C 19.75 9.90625 18.8125 12.25 16.9375 14.1875 C 15.0625 16.132812 12.710938 17.109375 9.890625 17.109375 C 7.046875 17.109375 4.6875 16.140625 2.8125 14.203125 C 0.9375 12.265625 0 9.914062 0 7.15625 L 0 1.4375 Z M 4.015625 5.9375 L 4.015625 6.625 C 4.015625 8.269531 4.566406 9.613281 5.671875 10.65625 C 6.785156 11.707031 8.179688 12.238281 9.859375 12.25 C 11.535156 12.25 12.929688 11.726562 14.046875 10.6875 C 15.171875 9.644531 15.734375 8.289062 15.734375 6.625 L 15.734375 5.9375 Z M 4.015625 5.9375 "/></g></g></g></g></g></g></g></g></g></g></mask><clipPath id="362504a2e6"><path d="M 2.460938 0.0859375 L 79.5 0.0859375 L 79.5 170.796875 L 2.460938 170.796875 Z M 2.460938 0.0859375 " clip-rule="nonzero"/></clipPath><clipPath id="b9cd708c60"><rect x="0" width="80" y="0" height="174"/></clipPath><clipPath id="0058b30aea"><rect x="0" width="80" y="0" height="174"/></clipPath><clipPath id="fcaeb592ef"><path d="M 120 128 L 141.5 128 L 141.5 148 L 120 148 Z M 120 128 " clip-rule="nonzero"/></clipPath><clipPath id="58f1d1cb2d"><path d="M 120 158 L 141.5 158 L 141.5 180 L 120 180 Z M 120 158 " clip-rule="nonzero"/></clipPath><clipPath id="15c3fb69b8"><path d="M 120 191 L 141.5 191 L 141.5 204 L 120 204 Z M 120 191 " clip-rule="nonzero"/></clipPath><clipPath id="de8ce5d154"><path d="M 120 215 L 141.5 215 L 141.5 233 L 120 233 Z M 120 215 " clip-rule="nonzero"/></clipPath><clipPath id="05a10e0022"><path d="M 0 0.0859375 L 105.402344 0.0859375 L 105.402344 157.417969 L 0 157.417969 Z M 0 0.0859375 " clip-rule="nonzero"/></clipPath><clipPath id="c9d589ede5"><path d="M 0 0.0859375 L 105.402344 0.0859375 L 105.402344 157.417969 L 0 157.417969 Z M 0 0.0859375 " clip-rule="nonzero"/></clipPath><clipPath id="70daf440e9"><path d="M 0 0.0859375 L 101.660156 0.0859375 L 101.660156 155.921875 L 0 155.921875 Z M 0 0.0859375 " clip-rule="nonzero"/></clipPath><linearGradient x1="-18.835344" gradientTransform="matrix(0.747042, 0, 0, 0.748074, 14.070796, 10.795797)" y1="66" x2="117.249995" gradientUnits="userSpaceOnUse" y2="66" id="bc1de3f9d9"><stop stop-opacity="1" stop-color="rgb(100%, 87.059021%, 34.899902%)" offset="0"/><stop stop-opacity="1" stop-color="rgb(100%, 87.059021%, 34.899902%)" offset="0.125"/><stop stop-opacity="1" stop-color="rgb(100%, 86.973572%, 34.886169%)" offset="0.140625"/><stop stop-opacity="1" stop-color="rgb(100%, 86.585999%, 34.825134%)" offset="0.144531"/><stop stop-opacity="1" stop-color="rgb(100%, 86.2854%, 34.779358%)" offset="0.148438"/><stop stop-opacity="1" stop-color="rgb(100%, 85.983276%, 34.732056%)" offset="0.152344"/><stop stop-opacity="1" stop-color="rgb(100%, 85.682678%, 34.684753%)" offset="0.15625"/><stop stop-opacity="1" stop-color="rgb(100%, 85.380554%, 34.637451%)" offset="0.160156"/><stop stop-opacity="1" stop-color="rgb(100%, 85.079956%, 34.591675%)" offset="0.164062"/><stop stop-opacity="1" stop-color="rgb(100%, 84.777832%, 34.544373%)" offset="0.167969"/><stop stop-opacity="1" stop-color="rgb(100%, 84.475708%, 34.49707%)" offset="0.171875"/><stop stop-opacity="1" stop-color="rgb(100%, 84.173584%, 34.449768%)" offset="0.175781"/><stop stop-opacity="1" stop-color="rgb(100%, 83.872986%, 34.403992%)" offset="0.179687"/><stop stop-opacity="1" stop-color="rgb(100%, 83.570862%, 34.356689%)" offset="0.183594"/><stop stop-opacity="1" stop-color="rgb(100%, 83.270264%, 34.309387%)" offset="0.1875"/><stop stop-opacity="1" stop-color="rgb(100%, 82.96814%, 34.262085%)" offset="0.191406"/><stop stop-opacity="1" stop-color="rgb(100%, 82.667542%, 34.216309%)" offset="0.195312"/><stop stop-opacity="1" stop-color="rgb(100%, 82.365417%, 34.169006%)" offset="0.199219"/><stop stop-opacity="1" stop-color="rgb(100%, 82.064819%, 34.121704%)" offset="0.203125"/><stop stop-opacity="1" stop-color="rgb(100%, 81.762695%, 34.074402%)" offset="0.207031"/><stop stop-opacity="1" stop-color="rgb(100%, 81.462097%, 34.028625%)" offset="0.210937"/><stop stop-opacity="1" stop-color="rgb(100%, 81.159973%, 33.981323%)" offset="0.214844"/><stop stop-opacity="1" stop-color="rgb(100%, 80.857849%, 33.934021%)" offset="0.21875"/><stop stop-opacity="1" stop-color="rgb(100%, 80.555725%, 33.886719%)" offset="0.222656"/><stop stop-opacity="1" stop-color="rgb(100%, 80.255127%, 33.840942%)" offset="0.226562"/><stop stop-opacity="1" stop-color="rgb(100%, 79.953003%, 33.79364%)" offset="0.230469"/><stop stop-opacity="1" stop-color="rgb(100%, 79.652405%, 33.746338%)" offset="0.234375"/><stop stop-opacity="1" stop-color="rgb(100%, 79.350281%, 33.699036%)" offset="0.238281"/><stop stop-opacity="1" stop-color="rgb(100%, 79.049683%, 33.653259%)" offset="0.242187"/><stop stop-opacity="1" stop-color="rgb(100%, 78.747559%, 33.605957%)" offset="0.246094"/><stop stop-opacity="1" stop-color="rgb(100%, 78.44696%, 33.558655%)" offset="0.25"/><stop stop-opacity="1" stop-color="rgb(100%, 78.144836%, 33.511353%)" offset="0.253906"/><stop stop-opacity="1" stop-color="rgb(100%, 77.844238%, 33.465576%)" offset="0.257812"/><stop stop-opacity="1" stop-color="rgb(100%, 77.542114%, 33.418274%)" offset="0.261719"/><stop stop-opacity="1" stop-color="rgb(100%, 77.241516%, 33.370972%)" offset="0.265625"/><stop stop-opacity="1" stop-color="rgb(100%, 76.939392%, 33.323669%)" offset="0.269531"/><stop stop-opacity="1" stop-color="rgb(100%, 76.637268%, 33.277893%)" offset="0.273437"/><stop stop-opacity="1" stop-color="rgb(100%, 76.335144%, 33.230591%)" offset="0.277344"/><stop stop-opacity="1" stop-color="rgb(100%, 76.034546%, 33.183289%)" offset="0.28125"/><stop stop-opacity="1" stop-color="rgb(100%, 75.732422%, 33.135986%)" offset="0.285156"/><stop stop-opacity="1" stop-color="rgb(100%, 75.431824%, 33.09021%)" offset="0.289062"/><stop stop-opacity="1" stop-color="rgb(100%, 75.1297%, 33.042908%)" offset="0.292969"/><stop stop-opacity="1" stop-color="rgb(100%, 74.829102%, 32.995605%)" offset="0.296875"/><stop stop-opacity="1" stop-color="rgb(100%, 74.526978%, 32.948303%)" offset="0.300781"/><stop stop-opacity="1" stop-color="rgb(100%, 74.226379%, 32.902527%)" offset="0.304687"/><stop stop-opacity="1" stop-color="rgb(100%, 73.924255%, 32.855225%)" offset="0.308594"/><stop stop-opacity="1" stop-color="rgb(100%, 73.623657%, 32.807922%)" offset="0.3125"/><stop stop-opacity="1" stop-color="rgb(100%, 73.321533%, 32.76062%)" offset="0.316406"/><stop stop-opacity="1" stop-color="rgb(100%, 73.019409%, 32.714844%)" offset="0.320312"/><stop stop-opacity="1" stop-color="rgb(100%, 72.717285%, 32.667542%)" offset="0.324219"/><stop stop-opacity="1" stop-color="rgb(100%, 72.416687%, 32.620239%)" offset="0.328125"/><stop stop-opacity="1" stop-color="rgb(100%, 72.114563%, 32.572937%)" offset="0.332031"/><stop stop-opacity="1" stop-color="rgb(100%, 71.813965%, 32.527161%)" offset="0.335937"/><stop stop-opacity="1" stop-color="rgb(100%, 71.511841%, 32.479858%)" offset="0.339844"/><stop stop-opacity="1" stop-color="rgb(100%, 71.211243%, 32.432556%)" offset="0.34375"/><stop stop-opacity="1" stop-color="rgb(100%, 70.909119%, 32.385254%)" offset="0.347656"/><stop stop-opacity="1" stop-color="rgb(100%, 70.608521%, 32.339478%)" offset="0.351562"/><stop stop-opacity="1" stop-color="rgb(100%, 70.306396%, 32.292175%)" offset="0.355469"/><stop stop-opacity="1" stop-color="rgb(100%, 70.005798%, 32.244873%)" offset="0.359375"/><stop stop-opacity="1" stop-color="rgb(100%, 69.703674%, 32.197571%)" offset="0.363281"/><stop stop-opacity="1" stop-color="rgb(100%, 69.40155%, 32.151794%)" offset="0.367187"/><stop stop-opacity="1" stop-color="rgb(100%, 69.099426%, 32.104492%)" offset="0.371094"/><stop stop-opacity="1" stop-color="rgb(100%, 68.798828%, 32.05719%)" offset="0.375"/><stop stop-opacity="1" stop-color="rgb(100%, 68.496704%, 32.009888%)" offset="0.378906"/><stop stop-opacity="1" stop-color="rgb(100%, 68.196106%, 31.964111%)" offset="0.382812"/><stop stop-opacity="1" stop-color="rgb(100%, 67.893982%, 31.916809%)" offset="0.386719"/><stop stop-opacity="1" stop-color="rgb(100%, 67.593384%, 31.869507%)" offset="0.390625"/><stop stop-opacity="1" stop-color="rgb(100%, 67.29126%, 31.822205%)" offset="0.394531"/><stop stop-opacity="1" stop-color="rgb(100%, 66.990662%, 31.776428%)" offset="0.398438"/><stop stop-opacity="1" stop-color="rgb(100%, 66.688538%, 31.729126%)" offset="0.402344"/><stop stop-opacity="1" stop-color="rgb(100%, 66.387939%, 31.681824%)" offset="0.40625"/><stop stop-opacity="1" stop-color="rgb(100%, 66.085815%, 31.634521%)" offset="0.410156"/><stop stop-opacity="1" stop-color="rgb(100%, 65.785217%, 31.588745%)" offset="0.414062"/><stop stop-opacity="1" stop-color="rgb(100%, 65.483093%, 31.541443%)" offset="0.417969"/><stop stop-opacity="1" stop-color="rgb(100%, 65.180969%, 31.494141%)" offset="0.421875"/><stop stop-opacity="1" stop-color="rgb(100%, 64.878845%, 31.446838%)" offset="0.425781"/><stop stop-opacity="1" stop-color="rgb(100%, 64.578247%, 31.401062%)" offset="0.429687"/><stop stop-opacity="1" stop-color="rgb(100%, 64.276123%, 31.35376%)" offset="0.433594"/><stop stop-opacity="1" stop-color="rgb(100%, 63.975525%, 31.306458%)" offset="0.4375"/><stop stop-opacity="1" stop-color="rgb(100%, 63.673401%, 31.259155%)" offset="0.441406"/><stop stop-opacity="1" stop-color="rgb(100%, 63.372803%, 31.213379%)" offset="0.445312"/><stop stop-opacity="1" stop-color="rgb(100%, 63.070679%, 31.166077%)" offset="0.449219"/><stop stop-opacity="1" stop-color="rgb(100%, 62.770081%, 31.118774%)" offset="0.453125"/><stop stop-opacity="1" stop-color="rgb(100%, 62.467957%, 31.071472%)" offset="0.457031"/><stop stop-opacity="1" stop-color="rgb(100%, 62.167358%, 31.025696%)" offset="0.460937"/><stop stop-opacity="1" stop-color="rgb(100%, 61.865234%, 30.978394%)" offset="0.464844"/><stop stop-opacity="1" stop-color="rgb(100%, 61.56311%, 30.931091%)" offset="0.46875"/><stop stop-opacity="1" stop-color="rgb(100%, 61.260986%, 30.883789%)" offset="0.472656"/><stop stop-opacity="1" stop-color="rgb(100%, 60.960388%, 30.838013%)" offset="0.476562"/><stop stop-opacity="1" stop-color="rgb(100%, 60.658264%, 30.79071%)" offset="0.480469"/><stop stop-opacity="1" stop-color="rgb(100%, 60.357666%, 30.743408%)" offset="0.484375"/><stop stop-opacity="1" stop-color="rgb(100%, 60.055542%, 30.696106%)" offset="0.488281"/><stop stop-opacity="1" stop-color="rgb(100%, 59.754944%, 30.65033%)" offset="0.492187"/><stop stop-opacity="1" stop-color="rgb(100%, 59.45282%, 30.603027%)" offset="0.496094"/><stop stop-opacity="1" stop-color="rgb(100%, 59.152222%, 30.555725%)" offset="0.5"/><stop stop-opacity="1" stop-color="rgb(100%, 58.850098%, 30.508423%)" offset="0.503906"/><stop stop-opacity="1" stop-color="rgb(100%, 58.5495%, 30.462646%)" offset="0.507812"/><stop stop-opacity="1" stop-color="rgb(100%, 58.247375%, 30.415344%)" offset="0.511719"/><stop stop-opacity="1" stop-color="rgb(100%, 57.946777%, 30.368042%)" offset="0.515625"/><stop stop-opacity="1" stop-color="rgb(100%, 57.644653%, 30.32074%)" offset="0.519531"/><stop stop-opacity="1" stop-color="rgb(100%, 57.342529%, 30.274963%)" offset="0.523437"/><stop stop-opacity="1" stop-color="rgb(100%, 57.099915%, 30.236816%)" offset="0.527344"/><stop stop-opacity="1" stop-color="rgb(100%, 56.858826%, 30.198669%)" offset="0.53125"/><stop stop-opacity="1" stop-color="rgb(100%, 56.858826%, 30.198669%)" offset="0.5625"/><stop stop-opacity="1" stop-color="rgb(100%, 56.858826%, 30.198669%)" offset="0.625"/><stop stop-opacity="1" stop-color="rgb(100%, 56.858826%, 30.198669%)" offset="0.75"/><stop stop-opacity="1" stop-color="rgb(100%, 56.858826%, 30.198669%)" offset="1"/></linearGradient><clipPath id="2d71dc3ba6"><rect x="0" width="106" y="0" height="158"/></clipPath><clipPath id="32824803d7"><path d="M 0 0.0859375 L 105.402344 0.0859375 L 105.402344 157.417969 L 0 157.417969 Z M 0 0.0859375 " clip-rule="nonzero"/></clipPath><clipPath id="667c0c421e"><rect x="0" width="106" y="0" height="158"/></clipPath><clipPath id="19defb4616"><rect x="0" width="106" y="0" height="158"/></clipPath><mask id="717f91d841"><g filter="url(#2c5238a12a)"><g transform="matrix(1, 0, 0, 1, 0, 0.000000000000018346)"><g clip-path="url(#19defb4616)"><g clip-path="url(#32824803d7)"><g transform="matrix(1, 0, 0, 1, 0, 0.000000000000018346)"><g clip-path="url(#667c0c421e)"><g fill="#000000" fill-opacity="1"><g transform="translate(14.136831, 33.238015)"><g><path d="M 19.40625 0 L 13.21875 0 L 5.9375 -8.375 L 5.9375 0 L 1.4375 0 L 1.4375 -19.75 L 5.9375 -19.75 L 5.9375 -11.6875 L 12.703125 -19.75 L 18.171875 -19.75 L 10.21875 -10.390625 Z M 19.40625 0 "/></g></g></g><g fill="#000000" fill-opacity="1"><g transform="translate(32.976365, 33.238015)"><g><path d="M 0.546875 -9.890625 C 0.546875 -12.742188 1.519531 -15.160156 3.46875 -17.140625 C 5.414062 -19.117188 7.765625 -20.109375 10.515625 -20.109375 C 13.273438 -20.109375 15.617188 -19.117188 17.546875 -17.140625 C 19.472656 -15.171875 20.4375 -12.753906 20.4375 -9.890625 C 20.4375 -6.992188 19.488281 -4.5625 17.59375 -2.59375 C 15.695312 -0.625 13.335938 0.359375 10.515625 0.359375 C 7.617188 0.359375 5.234375 -0.613281 3.359375 -2.5625 C 1.484375 -4.519531 0.546875 -6.960938 0.546875 -9.890625 Z M 5.40625 -9.890625 C 5.40625 -8.847656 5.566406 -7.898438 5.890625 -7.046875 C 6.210938 -6.191406 6.769531 -5.46875 7.5625 -4.875 C 8.363281 -4.289062 9.347656 -4 10.515625 -4 C 12.179688 -4 13.441406 -4.570312 14.296875 -5.71875 C 15.148438 -6.863281 15.578125 -8.253906 15.578125 -9.890625 C 15.578125 -11.492188 15.140625 -12.875 14.265625 -14.03125 C 13.398438 -15.195312 12.148438 -15.78125 10.515625 -15.78125 C 8.878906 -15.78125 7.617188 -15.195312 6.734375 -14.03125 C 5.847656 -12.875 5.40625 -11.492188 5.40625 -9.890625 Z M 5.40625 -9.890625 "/></g></g></g><g fill="#000000" fill-opacity="1"><g transform="translate(14.136831, 66.15327)"><g><path d="M 1.4375 -19.75 L 8.640625 -19.75 C 10.648438 -19.75 12.273438 -19.226562 13.515625 -18.1875 C 14.765625 -17.15625 15.390625 -15.648438 15.390625 -13.671875 C 15.390625 -11.691406 14.757812 -10.140625 13.5 -9.015625 C 12.238281 -7.890625 10.617188 -7.328125 8.640625 -7.328125 L 5.9375 -7.328125 L 5.9375 0 L 1.4375 0 Z M 5.9375 -10.921875 L 7.203125 -10.921875 C 8.210938 -10.921875 9.039062 -11.125 9.6875 -11.53125 C 10.332031 -11.9375 10.65625 -12.601562 10.65625 -13.53125 C 10.65625 -14.46875 10.332031 -15.140625 9.6875 -15.546875 C 9.039062 -15.953125 8.210938 -16.15625 7.203125 -16.15625 L 5.9375 -16.15625 Z M 5.9375 -10.921875 "/></g></g></g><g fill="#000000" fill-opacity="1"><g transform="translate(30.079815, 66.15327)"><g><path d="M 5.9375 -19.75 L 5.9375 0 L 1.4375 0 L 1.4375 -19.75 Z M 5.9375 -19.75 "/></g></g></g><g fill="#000000" fill-opacity="1"><g transform="translate(37.452845, 66.15327)"><g><path d="M 1.4375 -19.75 L 8.640625 -19.75 C 10.648438 -19.75 12.273438 -19.226562 13.515625 -18.1875 C 14.765625 -17.15625 15.390625 -15.648438 15.390625 -13.671875 C 15.390625 -11.691406 14.757812 -10.140625 13.5 -9.015625 C 12.238281 -7.890625 10.617188 -7.328125 8.640625 -7.328125 L 5.9375 -7.328125 L 5.9375 0 L 1.4375 0 Z M 5.9375 -10.921875 L 7.203125 -10.921875 C 8.210938 -10.921875 9.039062 -11.125 9.6875 -11.53125 C 10.332031 -11.9375 10.65625 -12.601562 10.65625 -13.53125 C 10.65625 -14.46875 10.332031 -15.140625 9.6875 -15.546875 C 9.039062 -15.953125 8.210938 -16.15625 7.203125 -16.15625 L 5.9375 -16.15625 Z M 5.9375 -10.921875 "/></g></g></g><g fill="#000000" fill-opacity="1"><g transform="translate(14.136831, 99.068525)"><g><path d="M 0.546875 -9.890625 C 0.546875 -12.742188 1.519531 -15.160156 3.46875 -17.140625 C 5.414062 -19.117188 7.765625 -20.109375 10.515625 -20.109375 C 13.273438 -20.109375 15.617188 -19.117188 17.546875 -17.140625 C 19.472656 -15.171875 20.4375 -12.753906 20.4375 -9.890625 C 20.4375 -6.992188 19.488281 -4.5625 17.59375 -2.59375 C 15.695312 -0.625 13.335938 0.359375 10.515625 0.359375 C 7.617188 0.359375 5.234375 -0.613281 3.359375 -2.5625 C 1.484375 -4.519531 0.546875 -6.960938 0.546875 -9.890625 Z M 5.40625 -9.890625 C 5.40625 -8.847656 5.566406 -7.898438 5.890625 -7.046875 C 6.210938 -6.191406 6.769531 -5.46875 7.5625 -4.875 C 8.363281 -4.289062 9.347656 -4 10.515625 -4 C 12.179688 -4 13.441406 -4.570312 14.296875 -5.71875 C 15.148438 -6.863281 15.578125 -8.253906 15.578125 -9.890625 C 15.578125 -11.492188 15.140625 -12.875 14.265625 -14.03125 C 13.398438 -15.195312 12.148438 -15.78125 10.515625 -15.78125 C 8.878906 -15.78125 7.617188 -15.195312 6.734375 -14.03125 C 5.847656 -12.875 5.40625 -11.492188 5.40625 -9.890625 Z M 5.40625 -9.890625 "/></g></g></g><g fill="#000000" fill-opacity="1"><g transform="translate(35.130821, 99.068525)"><g><path d="M 19.40625 0 L 13.21875 0 L 5.9375 -8.375 L 5.9375 0 L 1.4375 0 L 1.4375 -19.75 L 5.9375 -19.75 L 5.9375 -11.6875 L 12.703125 -19.75 L 18.171875 -19.75 L 10.21875 -10.390625 Z M 19.40625 0 "/></g></g></g></g></g></g></g></g></g></mask><clipPath id="b9e8b6a66b"><path d="M 0 0.0859375 L 101.660156 0.0859375 L 101.660156 155.921875 L 0 155.921875 Z M 0 0.0859375 " clip-rule="nonzero"/></clipPath><clipPath id="90130cab19"><rect x="0" width="106" y="0" height="158"/></clipPath><clipPath id="3f98218f68"><rect x="0" width="106" y="0" height="158"/></clipPath><clipPath id="5d2718517e"><rect x="0" width="142" y="0" height="241"/></clipPath></defs><g clip-path="url(#0b0d98d279)"><path fill="#ffffff" d="M 0 0.0859375 L 141.5 0.0859375 L 141.5 240.414062 L 0 240.414062 Z M 0 0.0859375 " fill-opacity="1" fill-rule="nonzero"/><g transform="matrix(1, 0, 0, 1, 0, 0.000000000000018346)"><g clip-path="url(#5d2718517e)"><g clip-path="url(#7a52cbd426)"><path fill="#000000" d="M 0 0.0859375 L 141.386719 0.0859375 L 141.386719 240.21875 L 0 240.21875 Z M 0 0.0859375 " fill-opacity="1" fill-rule="nonzero"/></g><g clip-path="url(#db6c49f07f)"><g transform="matrix(1, 0, 0, 1, 62, 0.000000000000018346)"><g clip-path="url(#0058b30aea)"><g clip-path="url(#a0d9c747c3)"><g mask="url(#e5d235a2cc)"><g transform="matrix(1, 0, 0, 1, 0.000000000000007105, 0.000000000000018346)"><g clip-path="url(#b9cd708c60)"><g clip-path="url(#362504a2e6)"><path fill="url(#aa5e55b52e)" d="M 79.5 0.0859375 L 2.460938 0.0859375 L 2.460938 170.796875 L 79.5 170.796875 Z M 79.5 0.0859375 " fill-rule="nonzero"/></g></g></g></g></g></g></g></g><g clip-path="url(#fcaeb592ef)"><g fill="#ffffff" fill-opacity="1"><g transform="translate(121.242694, 128.148899)"><g><path d="M 11.058594 19.742188 L 6.726562 19.742188 L 6.679688 19.734375 C 4.21875 19.199219 2.351562 18.019531 1.082031 16.199219 C -0.179688 14.398438 -0.808594 12.390625 -0.808594 10.171875 C -0.808594 7.378906 0.238281 5 2.324219 3.035156 C 4.40625 1.078125 6.917969 0.101562 9.863281 0.101562 C 12.851562 0.101562 15.378906 1.058594 17.445312 2.972656 C 19.519531 4.898438 20.558594 7.296875 20.558594 10.171875 C 20.558594 13.523438 19.378906 16.175781 17.019531 18.132812 L 16.71875 18.382812 L 12.761719 14.773438 L 13.265625 14.460938 C 14.816406 13.496094 15.589844 12.152344 15.589844 10.4375 C 15.589844 9.191406 15.042969 8.121094 13.949219 7.230469 C 12.824219 6.316406 11.464844 5.859375 9.863281 5.859375 C 8.292969 5.859375 6.957031 6.316406 5.851562 7.226562 C 4.769531 8.121094 4.230469 9.191406 4.230469 10.4375 C 4.230469 11.480469 4.542969 12.386719 5.171875 13.160156 C 5.777344 13.902344 6.582031 14.273438 7.589844 14.273438 L 7.589844 14.722656 L 7.140625 14.722656 L 7.140625 9.726562 L 11.507812 9.726562 L 11.507812 19.742188 Z M 11.058594 18.84375 L 11.058594 19.292969 L 10.609375 19.292969 L 10.609375 10.171875 L 11.058594 10.171875 L 11.058594 10.621094 L 7.589844 10.621094 L 7.589844 10.171875 L 8.039062 10.171875 L 8.039062 15.171875 L 7.589844 15.171875 C 6.296875 15.171875 5.257812 14.6875 4.476562 13.722656 C 3.714844 12.789062 3.332031 11.691406 3.332031 10.4375 C 3.332031 8.90625 3.980469 7.605469 5.28125 6.535156 C 6.550781 5.484375 8.078125 4.960938 9.863281 4.960938 C 11.675781 4.960938 13.226562 5.484375 14.515625 6.535156 C 15.828125 7.605469 16.488281 8.90625 16.488281 10.4375 C 16.488281 12.488281 15.570312 14.082031 13.738281 15.222656 L 13.5 14.839844 L 13.804688 14.511719 L 17.035156 17.453125 L 16.734375 17.785156 L 16.445312 17.441406 C 18.589844 15.664062 19.660156 13.242188 19.660156 10.171875 C 19.660156 7.558594 18.71875 5.378906 16.835938 3.632812 C 14.941406 1.878906 12.617188 1 9.863281 1 C 7.15625 1 4.847656 1.894531 2.941406 3.691406 C 1.039062 5.476562 0.0898438 7.636719 0.0898438 10.171875 C 0.0898438 12.203125 0.664062 14.039062 1.816406 15.6875 C 2.953125 17.3125 4.636719 18.371094 6.871094 18.855469 L 6.773438 19.292969 L 6.773438 18.84375 Z M 11.058594 18.84375 "/></g></g></g></g><g clip-path="url(#58f1d1cb2d)"><g fill="#ffffff" fill-opacity="1"><g transform="translate(121.242694, 158.766108)"><g><path d="M 9.886719 0.101562 C 12.867188 0.101562 15.386719 1.117188 17.453125 3.152344 C 19.523438 5.1875 20.558594 7.636719 20.558594 10.507812 C 20.558594 13.394531 19.527344 15.847656 17.464844 17.867188 C 15.40625 19.882812 12.882812 20.890625 9.886719 20.890625 C 6.878906 20.890625 4.34375 19.902344 2.285156 17.917969 C 0.222656 15.929688 -0.808594 13.460938 -0.808594 10.507812 C -0.808594 7.492188 0.214844 5.003906 2.261719 3.039062 C 4.304688 1.082031 6.847656 0.101562 9.886719 0.101562 Z M 9.886719 1 C 7.085938 1 4.753906 1.894531 2.882812 3.6875 C 1.019531 5.472656 0.0898438 7.746094 0.0898438 10.507812 C 0.0898438 13.207031 1.03125 15.460938 2.910156 17.269531 C 4.792969 19.085938 7.117188 19.996094 9.886719 19.996094 C 12.636719 19.996094 14.953125 19.070312 16.835938 17.226562 C 18.71875 15.382812 19.660156 13.144531 19.660156 10.507812 C 19.660156 7.890625 18.714844 5.648438 16.824219 3.789062 C 14.933594 1.929688 12.621094 1 9.886719 1 Z M 9.886719 5.859375 C 8.902344 5.859375 8.011719 6.007812 7.207031 6.308594 C 6.4375 6.597656 5.78125 7.105469 5.246094 7.832031 C 4.710938 8.550781 4.445312 9.441406 4.445312 10.507812 C 4.445312 12.035156 4.960938 13.179688 5.988281 13.941406 C 7.058594 14.738281 8.359375 15.136719 9.886719 15.136719 C 11.398438 15.136719 12.691406 14.730469 13.769531 13.921875 C 14.808594 13.140625 15.328125 12.003906 15.328125 10.507812 C 15.328125 9.027344 14.808594 7.890625 13.765625 7.09375 C 12.691406 6.269531 11.398438 5.859375 9.886719 5.859375 Z M 9.886719 4.960938 C 11.601562 4.960938 13.074219 5.433594 14.3125 6.382812 C 15.585938 7.359375 16.222656 8.734375 16.222656 10.507812 C 16.222656 12.300781 15.585938 13.679688 14.308594 14.636719 C 13.074219 15.566406 11.597656 16.03125 9.886719 16.03125 C 8.160156 16.03125 6.683594 15.578125 5.453125 14.664062 C 4.183594 13.71875 3.550781 12.335938 3.550781 10.507812 C 3.550781 9.246094 3.875 8.175781 4.523438 7.296875 C 5.164062 6.429688 5.957031 5.820312 6.894531 5.46875 C 7.796875 5.128906 8.796875 4.960938 9.886719 4.960938 Z M 9.886719 4.960938 "/></g></g></g></g><g clip-path="url(#15c3fb69b8)"><g fill="#ffffff" fill-opacity="1"><g transform="translate(121.242694, 190.532356)"><g><path d="M 19.75 6.386719 L 3.949219 6.386719 L 3.949219 5.9375 L 4.398438 5.9375 L 4.398438 13.183594 L -0.449219 13.183594 L -0.449219 0.988281 L 20.199219 0.988281 L 20.199219 6.386719 Z M 19.75 5.488281 L 19.75 5.9375 L 19.300781 5.9375 L 19.300781 1.4375 L 19.75 1.4375 L 19.75 1.886719 L 0 1.886719 L 0 1.4375 L 0.449219 1.4375 L 0.449219 12.734375 L 0 12.734375 L 0 12.285156 L 3.949219 12.285156 L 3.949219 12.734375 L 3.5 12.734375 L 3.5 5.488281 Z M 19.75 5.488281 "/></g></g></g></g><g clip-path="url(#de8ce5d154)"><g fill="#ffffff" fill-opacity="1"><g transform="translate(121.242694, 214.829815)"><g><path d="M 20.199219 1.4375 L 20.199219 7.15625 C 20.199219 10.023438 19.21875 12.472656 17.257812 14.507812 C 15.296875 16.546875 12.839844 17.566406 9.886719 17.566406 C 6.917969 17.566406 4.453125 16.550781 2.488281 14.519531 C 0.53125 12.492188 -0.449219 10.039062 -0.449219 7.15625 L -0.449219 0.988281 L 20.199219 0.988281 Z M 19.300781 1.4375 L 19.75 1.4375 L 19.75 1.886719 L 0 1.886719 L 0 1.4375 L 0.449219 1.4375 L 0.449219 7.15625 C 0.449219 9.796875 1.34375 12.042969 3.136719 13.894531 C 4.921875 15.742188 7.171875 16.667969 9.886719 16.667969 C 12.585938 16.667969 14.828125 15.738281 16.613281 13.882812 C 18.40625 12.023438 19.300781 9.78125 19.300781 7.15625 Z M 4.46875 5.9375 L 4.46875 6.632812 C 4.46875 8.144531 4.976562 9.382812 5.992188 10.339844 C 7.015625 11.304688 8.308594 11.792969 9.867188 11.808594 C 11.421875 11.808594 12.714844 11.324219 13.746094 10.359375 C 14.765625 9.402344 15.277344 8.160156 15.277344 6.632812 L 15.277344 5.9375 L 15.726562 5.9375 L 15.726562 6.386719 L 4.023438 6.386719 L 4.023438 5.9375 Z M 3.574219 5.488281 L 16.175781 5.488281 L 16.175781 6.632812 C 16.175781 8.421875 15.570312 9.882812 14.359375 11.015625 C 13.15625 12.140625 11.65625 12.707031 9.859375 12.707031 C 8.066406 12.6875 6.570312 12.117188 5.378906 10.992188 C 4.175781 9.855469 3.574219 8.402344 3.574219 6.632812 Z M 3.574219 5.488281 "/></g></g></g></g><path stroke-linecap="butt" transform="matrix(0, 0.748074, -0.748074, 0, 113.610482, 14.228261)" fill="none" stroke-linejoin="miter" d="M 0.749661 0.497546 L 282.713367 0.497546 " stroke="#ffffff" stroke-width="1" stroke-opacity="1" stroke-miterlimit="4"/><path stroke-linecap="round" transform="matrix(0, 0.748074, -0.748074, 0, 113.610482, 14.228261)" fill="none" stroke-linejoin="round" d="M 0.499017 -1.001094 L 0.499017 2.001408 " stroke="#ffffff" stroke-width="1" stroke-opacity="1" stroke-miterlimit="4"/><path stroke-linecap="round" transform="matrix(0, 0.748074, -0.748074, 0, 113.610482, 14.228261)" fill="none" stroke-linejoin="round" d="M 282.96401 -1.001094 L 282.96401 2.001408 " stroke="#ffffff" stroke-width="1" stroke-opacity="1" stroke-miterlimit="4"/><g clip-path="url(#05a10e0022)"><g transform="matrix(1, 0, 0, 1, 0, 0.000000000000018346)"><g clip-path="url(#3f98218f68)"><g clip-path="url(#c9d589ede5)"><g mask="url(#717f91d841)"><g transform="matrix(1, 0, 0, 1, 0, 0.000000000000018346)"><g clip-path="url(#90130cab19)"><g clip-path="url(#b9e8b6a66b)"><path fill="url(#bc1de3f9d9)" d="M 0 0.0859375 L 0 155.921875 L 101.660156 155.921875 L 101.660156 0.0859375 Z M 0 0.0859375 " fill-rule="nonzero"/></g></g></g></g></g></g></g></g><g fill="#ffffff" fill-opacity="1"><g transform="translate(58.239428, 13.1901)"><g><path d="M 4.0625 11.9375 C 4.0625 12.625 4.164062 13.289062 4.375 13.9375 C 4.582031 14.582031 4.785156 15.0625 4.984375 15.375 L 5.296875 15.828125 L 1.453125 17.734375 C 1.410156 17.671875 1.347656 17.582031 1.265625 17.46875 C 1.191406 17.363281 1.046875 17.109375 0.828125 16.703125 C 0.609375 16.296875 0.421875 15.859375 0.265625 15.390625 C 0.109375 14.929688 -0.03125 14.328125 -0.15625 13.578125 C -0.289062 12.828125 -0.359375 12.050781 -0.359375 11.25 C -0.359375 9.414062 0.0859375 7.675781 0.984375 6.03125 C 1.890625 4.382812 3.128906 3.054688 4.703125 2.046875 C 6.285156 1.046875 8 0.546875 9.84375 0.546875 C 11.226562 0.546875 12.554688 0.84375 13.828125 1.4375 C 15.109375 2.03125 16.203125 2.816406 17.109375 3.796875 C 18.023438 4.773438 18.753906 5.914062 19.296875 7.21875 C 19.835938 8.53125 20.109375 9.875 20.109375 11.25 C 20.109375 12.53125 19.957031 13.707031 19.65625 14.78125 C 19.351562 15.851562 19.050781 16.613281 18.75 17.0625 L 18.28125 17.734375 L 14.453125 15.828125 C 14.554688 15.710938 14.675781 15.539062 14.8125 15.3125 C 14.945312 15.09375 15.125 14.644531 15.34375 13.96875 C 15.5625 13.300781 15.671875 12.625 15.671875 11.9375 C 15.671875 10.851562 15.492188 9.878906 15.140625 9.015625 C 14.796875 8.160156 14.335938 7.476562 13.765625 6.96875 C 13.191406 6.46875 12.570312 6.085938 11.90625 5.828125 C 11.25 5.566406 10.578125 5.4375 9.890625 5.4375 C 8.390625 5.4375 7.039062 6 5.84375 7.125 C 4.65625 8.25 4.0625 9.851562 4.0625 11.9375 Z M 4.0625 11.9375 "/></g></g></g><g fill="#ffffff" fill-opacity="1"><g transform="translate(58.239428, 37.918465)"><g><path d="M 19.75 11.46875 L 0 19.4375 L 0 14.609375 L 3.953125 13.140625 L 3.953125 5.625 L 0 4.171875 L 0 -0.671875 L 19.75 7.296875 Z M 7.90625 11.609375 L 13.640625 9.40625 L 13.640625 9.359375 L 7.90625 7.15625 Z M 7.90625 11.609375 "/></g></g></g><g fill="#ffffff" fill-opacity="1"><g transform="translate(58.239428, 63.388922)"><g><path d="M 19.75 12.859375 L 15.796875 12.859375 L 15.796875 5.9375 L 11.875 5.9375 L 11.875 12.328125 L 7.921875 12.328125 L 7.921875 5.9375 L 0 5.9375 L 0 1.4375 L 19.75 1.4375 Z M 19.75 12.859375 "/></g></g></g><g fill="#ffffff" fill-opacity="1"><g transform="translate(58.239428, 83.664742)"><g><path d="M 27.578125 3.46875 L 23.359375 8.328125 L 21.515625 6.984375 L 24.828125 1.296875 Z M 19.75 12.734375 L 15.796875 12.734375 L 15.796875 5.9375 L 11.875 5.9375 L 11.875 12.453125 L 7.921875 12.453125 L 7.921875 5.9375 L 3.953125 5.9375 L 3.953125 12.734375 L 0 12.734375 L 0 1.4375 L 19.75 1.4375 Z M 19.75 12.734375 "/></g></g></g><g fill="#ffffff" fill-opacity="1"><g transform="translate(97.482921, 119.225881)"><g><path d="M 6.125 2.96875 L 0 2.96875 L 0 0.71875 L 9.875 0.71875 L 9.875 2.96875 L 3.75 6.890625 L 3.75 6.921875 L 9.875 6.921875 L 9.875 9.171875 L 0 9.171875 L 0 6.921875 L 6.125 3 Z M 6.125 2.96875 "/></g></g></g><g fill="#ffffff" fill-opacity="1"><g transform="translate(97.482921, 129.112451)"><g><path d="M 4.9375 0.28125 C 6.363281 0.28125 7.570312 0.765625 8.5625 1.734375 C 9.550781 2.710938 10.046875 3.882812 10.046875 5.25 C 10.046875 6.632812 9.550781 7.804688 8.5625 8.765625 C 7.582031 9.734375 6.375 10.21875 4.9375 10.21875 C 3.5 10.21875 2.285156 9.742188 1.296875 8.796875 C 0.316406 7.847656 -0.171875 6.664062 -0.171875 5.25 C -0.171875 3.8125 0.3125 2.625 1.28125 1.6875 C 2.257812 0.75 3.476562 0.28125 4.9375 0.28125 Z M 4.9375 2.703125 C 4.425781 2.703125 3.957031 2.78125 3.53125 2.9375 C 3.101562 3.101562 2.738281 3.382812 2.4375 3.78125 C 2.144531 4.175781 2 4.664062 2 5.25 C 2 6.09375 2.285156 6.726562 2.859375 7.15625 C 3.429688 7.582031 4.125 7.796875 4.9375 7.796875 C 5.75 7.796875 6.441406 7.578125 7.015625 7.140625 C 7.597656 6.703125 7.890625 6.070312 7.890625 5.25 C 7.890625 4.4375 7.597656 3.804688 7.015625 3.359375 C 6.441406 2.921875 5.75 2.703125 4.9375 2.703125 Z M 4.9375 2.703125 "/></g></g></g><g fill="#ffffff" fill-opacity="1"><g transform="translate(97.482921, 139.609445)"><g><path d="M 2.5625 2.078125 C 2.5625 2.460938 2.425781 2.785156 2.15625 3.046875 C 1.894531 3.316406 1.570312 3.453125 1.1875 3.453125 C 0.8125 3.453125 0.488281 3.316406 0.21875 3.046875 C -0.0390625 2.785156 -0.171875 2.460938 -0.171875 2.078125 C -0.171875 1.703125 -0.0390625 1.378906 0.21875 1.109375 C 0.488281 0.847656 0.8125 0.71875 1.1875 0.71875 C 1.570312 0.71875 1.894531 0.847656 2.15625 1.109375 C 2.425781 1.378906 2.5625 1.703125 2.5625 2.078125 Z M 2.5625 2.078125 "/></g></g></g><g fill="#ffffff" fill-opacity="1"><g transform="translate(97.482921, 143.7867)"><g/></g></g><g fill="#ffffff" fill-opacity="1"><g transform="translate(97.482921, 147.054296)"><g><path d="M 5.828125 0.34375 L 8.0625 0.34375 L 9.875 3.15625 L 9.875 4.21875 L 0 4.21875 L 0 1.96875 L 6.875 1.96875 Z M 5.828125 0.34375 "/></g></g></g><g fill="#ffffff" fill-opacity="1"><g transform="translate(97.482921, 151.997581)"><g><path d="M 8.15625 4.34375 C 8.15625 4.019531 7.992188 3.710938 7.671875 3.421875 C 7.359375 3.140625 7.046875 2.925781 6.734375 2.78125 L 6.265625 2.578125 L 7.1875 0.703125 C 7.257812 0.722656 7.359375 0.757812 7.484375 0.8125 C 7.617188 0.875 7.847656 1.007812 8.171875 1.21875 C 8.503906 1.425781 8.796875 1.65625 9.046875 1.90625 C 9.304688 2.15625 9.535156 2.5 9.734375 2.9375 C 9.941406 3.375 10.046875 3.84375 10.046875 4.34375 C 10.046875 4.988281 9.960938 5.550781 9.796875 6.03125 C 9.640625 6.519531 9.4375 6.894531 9.1875 7.15625 C 8.945312 7.414062 8.660156 7.628906 8.328125 7.796875 C 8.003906 7.960938 7.707031 8.066406 7.4375 8.109375 C 7.164062 8.148438 6.878906 8.171875 6.578125 8.171875 C 6.148438 8.171875 5.695312 8.050781 5.21875 7.8125 C 4.75 7.570312 4.328125 7.28125 3.953125 6.9375 C 3.585938 6.601562 3.25 6.265625 2.9375 5.921875 C 2.632812 5.578125 2.394531 5.285156 2.21875 5.046875 L 1.96875 4.6875 L 1.96875 8.359375 L 0 8.359375 L 0 0.65625 L 0.5625 0.65625 C 0.675781 0.789062 0.828125 0.972656 1.015625 1.203125 C 1.210938 1.441406 1.585938 1.847656 2.140625 2.421875 C 2.691406 3.003906 3.207031 3.519531 3.6875 3.96875 C 4.175781 4.414062 4.691406 4.820312 5.234375 5.1875 C 5.785156 5.5625 6.234375 5.75 6.578125 5.75 C 6.710938 5.75 6.847656 5.734375 6.984375 5.703125 C 7.117188 5.671875 7.285156 5.613281 7.484375 5.53125 C 7.679688 5.457031 7.84375 5.316406 7.96875 5.109375 C 8.09375 4.898438 8.15625 4.644531 8.15625 4.34375 Z M 8.15625 4.34375 "/></g></g></g><g fill="#ffffff" fill-opacity="1"><g transform="translate(97.482921, 161.01039)"><g><path d="M 7.03125 2.453125 L 7.890625 0.6875 C 7.941406 0.695312 8.015625 0.71875 8.109375 0.75 C 8.210938 0.78125 8.390625 0.875 8.640625 1.03125 C 8.890625 1.195312 9.109375 1.382812 9.296875 1.59375 C 9.492188 1.8125 9.664062 2.128906 9.8125 2.546875 C 9.96875 2.960938 10.046875 3.429688 10.046875 3.953125 C 10.046875 4.890625 9.773438 5.660156 9.234375 6.265625 C 8.703125 6.878906 8.019531 7.1875 7.1875 7.1875 C 6.40625 7.1875 5.785156 6.894531 5.328125 6.3125 C 4.816406 7.15625 4.0625 7.578125 3.0625 7.578125 C 2.125 7.578125 1.347656 7.226562 0.734375 6.53125 C 0.128906 5.84375 -0.171875 4.96875 -0.171875 3.90625 C -0.171875 3.34375 -0.0859375 2.828125 0.078125 2.359375 C 0.242188 1.898438 0.441406 1.539062 0.671875 1.28125 C 0.910156 1.019531 1.148438 0.804688 1.390625 0.640625 C 1.628906 0.472656 1.832031 0.351562 2 0.28125 L 2.25 0.203125 L 3.265625 2.28125 C 3.222656 2.28125 3.164062 2.285156 3.09375 2.296875 C 3.03125 2.316406 2.910156 2.359375 2.734375 2.421875 C 2.566406 2.492188 2.414062 2.582031 2.28125 2.6875 C 2.144531 2.789062 2.023438 2.945312 1.921875 3.15625 C 1.816406 3.375 1.765625 3.625 1.765625 3.90625 C 1.765625 4.320312 1.878906 4.660156 2.109375 4.921875 C 2.335938 5.191406 2.65625 5.328125 3.0625 5.328125 C 3.488281 5.328125 3.835938 5.1875 4.109375 4.90625 C 4.378906 4.632812 4.515625 4.300781 4.515625 3.90625 L 4.4375 3.46875 L 5.90625 3.46875 L 5.90625 3.96875 C 5.90625 4.269531 6.023438 4.539062 6.265625 4.78125 C 6.503906 5.019531 6.800781 5.140625 7.15625 5.140625 C 7.46875 5.140625 7.726562 5.019531 7.9375 4.78125 C 8.144531 4.539062 8.25 4.253906 8.25 3.921875 C 8.25 3.691406 8.207031 3.484375 8.125 3.296875 C 8.039062 3.109375 7.9375 2.960938 7.8125 2.859375 C 7.695312 2.765625 7.578125 2.679688 7.453125 2.609375 C 7.335938 2.546875 7.238281 2.503906 7.15625 2.484375 Z M 7.03125 2.453125 "/></g></g></g><g fill="#ffffff" fill-opacity="1"><g transform="translate(97.482921, 168.969907)"><g><path d="M 4.0625 6.671875 L 4.0625 7.8125 L 2.078125 7.8125 L 2.078125 6.671875 L 0 6.671875 L 0 4.5625 L 2.078125 4.5625 L 2.078125 -0.296875 L 2.75 -0.296875 L 9.875 4.4375 L 9.875 6.671875 Z M 6.875 4.5625 L 6.875 4.53125 L 4.0625 2.78125 L 4.0625 4.5625 Z M 6.875 4.5625 "/></g></g></g><g fill="#ffffff" fill-opacity="1"><g transform="translate(97.482921, 176.941398)"><g><path d="M 1.96875 0.21875 L 2.828125 2 C 2.078125 2.21875 1.703125 2.796875 1.703125 3.734375 C 1.703125 4.140625 1.835938 4.472656 2.109375 4.734375 C 2.378906 5.003906 2.722656 5.140625 3.140625 5.140625 C 3.554688 5.140625 3.894531 5.007812 4.15625 4.75 C 4.425781 4.5 4.613281 4.191406 4.71875 3.828125 C 4.820312 3.460938 4.875 3.046875 4.875 2.578125 C 4.875 1.929688 4.769531 1.367188 4.5625 0.890625 L 9.875 1.71875 L 9.875 6.765625 L 7.90625 6.765625 L 7.90625 3.65625 L 6.515625 3.4375 C 6.515625 3.457031 6.515625 3.5 6.515625 3.5625 C 6.523438 3.625 6.53125 3.671875 6.53125 3.703125 C 6.53125 4.210938 6.472656 4.671875 6.359375 5.078125 C 6.253906 5.492188 6.078125 5.878906 5.828125 6.234375 C 5.578125 6.597656 5.21875 6.878906 4.75 7.078125 C 4.28125 7.285156 3.71875 7.390625 3.0625 7.390625 C 2.125 7.390625 1.347656 7.046875 0.734375 6.359375 C 0.128906 5.671875 -0.171875 4.796875 -0.171875 3.734375 C -0.171875 2.765625 0.0351562 1.988281 0.453125 1.40625 C 0.867188 0.820312 1.375 0.425781 1.96875 0.21875 Z M 1.96875 0.21875 "/></g></g></g><g fill="#ffffff" fill-opacity="1"><g transform="translate(97.482921, 184.613664)"><g><path d="M 9.875 6.9375 L 6.484375 4.03125 C 6.578125 4.195312 6.625 4.429688 6.625 4.734375 C 6.625 5.085938 6.550781 5.441406 6.40625 5.796875 C 6.257812 6.160156 6.046875 6.5 5.765625 6.8125 C 5.492188 7.125 5.128906 7.378906 4.671875 7.578125 C 4.222656 7.785156 3.722656 7.890625 3.171875 7.890625 C 2.609375 7.890625 2.101562 7.78125 1.65625 7.5625 C 1.21875 7.351562 0.867188 7.070312 0.609375 6.71875 C 0.359375 6.363281 0.164062 5.972656 0.03125 5.546875 C -0.101562 5.128906 -0.171875 4.6875 -0.171875 4.21875 C -0.171875 3.113281 0.148438 2.179688 0.796875 1.421875 C 1.441406 0.660156 2.234375 0.28125 3.171875 0.28125 C 3.972656 0.28125 4.628906 0.390625 5.140625 0.609375 C 5.648438 0.835938 6.304688 1.25 7.109375 1.84375 L 9.875 4.171875 Z M 3.171875 2.625 C 2.742188 2.625 2.382812 2.757812 2.09375 3.03125 C 1.8125 3.3125 1.671875 3.671875 1.671875 4.109375 C 1.671875 4.554688 1.8125 4.921875 2.09375 5.203125 C 2.382812 5.492188 2.742188 5.640625 3.171875 5.640625 C 3.609375 5.640625 3.972656 5.492188 4.265625 5.203125 C 4.554688 4.910156 4.703125 4.550781 4.703125 4.125 C 4.703125 3.707031 4.554688 3.351562 4.265625 3.0625 C 3.972656 2.769531 3.609375 2.625 3.171875 2.625 Z M 3.171875 2.625 "/></g></g></g><g fill="#ffffff" fill-opacity="1"><g transform="translate(97.482921, 192.860444)"><g><path d="M 9.875 8.53125 L 9.21875 8.53125 L 0 3.3125 L 0 0.65625 L 7.90625 5.203125 L 7.90625 0.953125 L 9.875 0.953125 Z M 9.875 8.53125 "/></g></g></g><g fill="#ffffff" fill-opacity="1"><g transform="translate(97.482921, 201.095261)"><g><path d="M 7.5625 7.34375 C 6.5625 7.34375 5.816406 6.914062 5.328125 6.0625 C 5.085938 6.59375 4.742188 7.015625 4.296875 7.328125 C 3.847656 7.640625 3.300781 7.796875 2.65625 7.796875 C 1.851562 7.796875 1.179688 7.421875 0.640625 6.671875 C 0.0976562 5.929688 -0.171875 5.082031 -0.171875 4.125 C -0.171875 3.132812 0.09375 2.269531 0.625 1.53125 C 1.164062 0.789062 1.84375 0.421875 2.65625 0.421875 C 3.90625 0.421875 4.796875 0.992188 5.328125 2.140625 C 5.816406 1.273438 6.5625 0.84375 7.5625 0.84375 C 8.269531 0.84375 8.859375 1.175781 9.328125 1.84375 C 9.804688 2.507812 10.046875 3.265625 10.046875 4.109375 C 10.046875 4.972656 9.804688 5.726562 9.328125 6.375 C 8.859375 7.019531 8.269531 7.34375 7.5625 7.34375 Z M 7.234375 5.203125 C 7.554688 5.203125 7.820312 5.097656 8.03125 4.890625 C 8.25 4.691406 8.359375 4.429688 8.359375 4.109375 C 8.359375 3.796875 8.25 3.53125 8.03125 3.3125 C 7.820312 3.101562 7.554688 3 7.234375 3 C 6.921875 3 6.660156 3.109375 6.453125 3.328125 C 6.242188 3.546875 6.140625 3.8125 6.140625 4.125 C 6.140625 4.4375 6.238281 4.691406 6.4375 4.890625 C 6.644531 5.097656 6.910156 5.203125 7.234375 5.203125 Z M 3.90625 3.203125 C 3.675781 2.972656 3.378906 2.859375 3.015625 2.859375 C 2.648438 2.859375 2.347656 2.972656 2.109375 3.203125 C 1.878906 3.441406 1.765625 3.742188 1.765625 4.109375 C 1.765625 4.460938 1.878906 4.757812 2.109375 5 C 2.347656 5.238281 2.648438 5.359375 3.015625 5.359375 C 3.378906 5.359375 3.675781 5.234375 3.90625 4.984375 C 4.144531 4.742188 4.265625 4.453125 4.265625 4.109375 C 4.265625 3.742188 4.144531 3.441406 3.90625 3.203125 Z M 3.90625 3.203125 "/></g></g></g><g fill="#ffffff" fill-opacity="1"><g transform="translate(97.482921, 209.318104)"><g><path d="M 0 1.296875 L 3.390625 4.21875 C 3.296875 4.050781 3.25 3.8125 3.25 3.5 C 3.25 3.15625 3.320312 2.800781 3.46875 2.4375 C 3.613281 2.082031 3.820312 1.742188 4.09375 1.421875 C 4.375 1.109375 4.738281 0.851562 5.1875 0.65625 C 5.644531 0.457031 6.148438 0.359375 6.703125 0.359375 C 7.265625 0.359375 7.765625 0.460938 8.203125 0.671875 C 8.648438 0.890625 9 1.175781 9.25 1.53125 C 9.507812 1.882812 9.707031 2.269531 9.84375 2.6875 C 9.976562 3.113281 10.046875 3.554688 10.046875 4.015625 C 10.046875 5.128906 9.722656 6.0625 9.078125 6.8125 C 8.429688 7.570312 7.640625 7.953125 6.703125 7.953125 C 5.898438 7.953125 5.242188 7.835938 4.734375 7.609375 C 4.222656 7.390625 3.566406 6.988281 2.765625 6.40625 L 0 4.078125 Z M 6.703125 5.625 C 7.128906 5.625 7.484375 5.484375 7.765625 5.203125 C 8.054688 4.921875 8.203125 4.5625 8.203125 4.125 C 8.203125 3.6875 8.054688 3.320312 7.765625 3.03125 C 7.484375 2.75 7.128906 2.609375 6.703125 2.609375 C 6.265625 2.609375 5.898438 2.753906 5.609375 3.046875 C 5.316406 3.335938 5.171875 3.695312 5.171875 4.125 C 5.171875 4.539062 5.316406 4.894531 5.609375 5.1875 C 5.898438 5.476562 6.265625 5.625 6.703125 5.625 Z M 6.703125 5.625 "/></g></g></g><g fill="#ffffff" fill-opacity="1"><g transform="translate(97.482921, 217.564883)"><g><path d="M 4.9375 0.328125 C 6.5625 0.328125 7.816406 0.710938 8.703125 1.484375 C 9.597656 2.265625 10.046875 3.222656 10.046875 4.359375 C 10.046875 5.492188 9.597656 6.441406 8.703125 7.203125 C 7.816406 7.972656 6.5625 8.359375 4.9375 8.359375 C 4.050781 8.359375 3.269531 8.25 2.59375 8.03125 C 1.925781 7.820312 1.394531 7.523438 1 7.140625 C 0.601562 6.765625 0.304688 6.34375 0.109375 5.875 C -0.078125 5.414062 -0.171875 4.910156 -0.171875 4.359375 C -0.171875 3.804688 -0.078125 3.296875 0.109375 2.828125 C 0.304688 2.359375 0.601562 1.929688 1 1.546875 C 1.394531 1.171875 1.925781 0.875 2.59375 0.65625 C 3.269531 0.4375 4.050781 0.328125 4.9375 0.328125 Z M 4.9375 2.609375 C 3.882812 2.609375 3.097656 2.757812 2.578125 3.0625 C 2.054688 3.363281 1.796875 3.796875 1.796875 4.359375 C 1.796875 4.910156 2.054688 5.335938 2.578125 5.640625 C 3.097656 5.941406 3.882812 6.09375 4.9375 6.09375 C 5.925781 6.09375 6.695312 5.9375 7.25 5.625 C 7.800781 5.320312 8.078125 4.898438 8.078125 4.359375 C 8.078125 3.816406 7.800781 3.390625 7.25 3.078125 C 6.695312 2.765625 5.925781 2.609375 4.9375 2.609375 Z M 4.9375 2.609375 "/></g></g></g></g></g></g></svg>